<svg version="1.1" xmlns="http://www.w3.org/2000/svg" viewBox="0 0 250 250"><desc>Created with Snap</desc><defs></defs><g transform="matrix(0.0299,0,0,0.0299,42.7421,119.183)"><g transform="matrix(21.7634,0,0,21.7634,-1600.8144,-4158.0777)">
<g id="gSktcgt60t30">
	<g>
		<g>
			<path d="M367.40915,165.84367c0.61768,2.60449,0.01721-1.06738-0.38635-4.03174
				c-0.19678-1.48242-0.35449-2.78369-0.31274-3.01367c0.03137-0.11719,0.13281,0.02832,0.33252,0.54639
				c0.17444,0.5249,0.42407,1.42822,0.77783,2.81982c-0.146-0.99023-0.30457-2.11865-0.58594-3.3252
				c-0.29688-1.20312-0.6427-2.50293-1.02368-3.87207c-0.39331-1.36523-0.76929-2.81592-1.26233-4.27783
				c-0.51892-1.45264-1.05334-2.94922-1.59338-4.46143c-1.01868-3.04492-2.40552-6.02051-3.56873-8.89111
				c-0.56494-1.44336-1.23328-2.79541-1.8324-4.09766c-0.6012-1.30176-1.16113-2.5415-1.66333-3.69629
				c0.27393-0.78418,1.56018,0.75684,1.94543,0.38867c0.19189-0.18604,0.15698-0.85205-0.34985-2.54199
				c-0.58972-1.64941-1.65552-4.32373-3.62109-8.47852c-1.46033-2.69873-2.6123-4.75049-3.52966-6.30615
				c-0.96558-1.52686-1.72034-2.54395-2.27539-3.24756c-1.12207-1.39941-1.54822-1.48389-1.95032-1.48682
				c-0.40173-0.00244-0.78003,0.07568-1.7926-0.97949c-0.49316-0.53613-1.23059-1.29736-2.18787-2.50635
				c-0.98242-1.19092-2.15833-2.85205-3.80432-4.99414c1.45752,1.98975,2.79407,4.06689,4.1969,6.09229
				c0.34326,0.51172,0.70142,1.01318,1.03235,1.53271l0.96472,1.57715l1.92944,3.15137
				c-1.21167-1.42041-2.49426-3.16553-3.97778-5.07959c-1.53491-1.87842-3.14075-4.01709-4.90869-6.27832
				c-0.91162-1.10938-1.85474-2.25732-2.82483-3.43799c-0.96948-1.18018-1.91992-2.42969-3.00781-3.61133
				c-2.13306-2.39746-4.26746-4.98047-6.68481-7.41846c-4.63855-5.06201-9.98096-9.89502-15.33752-14.47705
				c-1.38342-1.09277-2.75977-2.18018-4.12354-3.25732c-0.68408-0.53564-1.36499-1.06934-2.04199-1.59961
				c-0.70203-0.49658-1.3999-0.99072-2.09302-1.48096c-1.38904-0.97656-2.75903-1.93945-4.10364-2.88476
				c-1.37073-0.90576-2.755-1.73584-4.08911-2.56982c-7.60144-5.61914-15.12061-10.80566-23.87-15.42383
				c-8.76465-4.52441-18.78674-8.51172-31.16602-10.85498c1.38098,0.13623,7.521,1.13574,6.45093,0.27441
				c-1.10107-0.39404-2.43481-0.78857-3.8894-1.17139c-1.45569-0.37842-3.0238-0.78613-4.63184-1.021
				c-1.60107-0.26953-3.2113-0.51611-4.7196-0.73389c-0.75427-0.10596-1.48291-0.20801-2.17261-0.30469
				c-0.69482-0.05664-1.35034-0.11035-1.95288-0.15967c-6.65302-0.19434-5.75879,0.37158-3.8877,1.02686
				c1.87988,0.65576,4.74719,1.40088,2.2439,1.59082c-2.71783-0.16846-5.38287-0.40625-8.117-0.38379
				c-1.36188-0.0249-2.73596-0.0498-4.13312-0.07568c-0.69794-0.00879-1.39948-0.0498-2.11072-0.03955
				c-0.71112,0.01318-1.42932,0.02637-2.15601,0.04004c-2.90527,0.07275-5.93945-0.05371-9.19788,0.10596
				c-1.62927,0.04248-3.31476,0.06787-5.06927,0.07275c-1.7536,0.02246-3.56903,0.1543-5.47076,0.19678
				c-1.58142-0.06738-3.17725-0.21777-4.76306-0.2168l-4.77667-0.01709c-3.20728-0.08398-6.38513,0.17383-9.60614,0.30322
				c-0.75049,0.34326-1.5401,0.62646-2.34509,0.96729c-0.80505,0.34082-1.64038,0.66553-2.5058,0.97754
				c-1.72845,0.6333-3.5871,1.17676-5.54596,1.75732c-1.94324,0.64111-4.00305,1.25537-6.17566,1.8623
				c-0.54297,0.15234-1.09235,0.30664-1.64801,0.4624c-0.54907,0.17725-1.10437,0.35645-1.66583,0.53809
				c-1.12628,0.35449-2.27728,0.71631-3.4527,1.08643c-9.36597,2.99268-20.2431,7.15674-31.10229,14.17969
				c-2.61151,0.53613-9.28107,4.96191-15.58649,9.81884c-3.06207,2.54883-6.20923,4.98096-8.67517,7.17725
				c-1.25995,1.06592-2.41241,1.99756-3.40491,2.72998c-0.99219,0.73291-1.76428,1.33301-2.3714,1.61377
				c-2.19385,2.10596-3.58594,3.06104-4.57172,3.40918c-0.97815,0.35498-1.52826,0.11768-2.07983-0.22412
				c-1.09521-0.66846-2.08862-1.67529-6.05536,1.59473c-1.65436,1.50146-2.67261,2.5752-3.3468,3.20215
				c-0.6698,0.63086-0.96002,0.84766-0.99628,0.78662c-0.07269-0.12109,0.87103-1.35303,1.81732-2.58691
				c0.95923-1.22119,1.99023-2.38135,1.91302-2.51318c-0.03418-0.06152-0.33612,0.14307-1.04095,0.74805
				c-0.72437,0.5874-1.77808,1.64258-3.34473,3.26025c0.77002-0.9502,1.47314-1.78857,2.11786-2.53076
				c0.67468-0.71436,1.2937-1.33008,1.85675-1.86914c1.12781-1.07764,2.04547-1.83789,2.8335-2.39844
				c0.78809-0.56055,1.44672-0.9209,2.05804-1.19922c0.63116-0.25879,1.21356-0.43652,1.83118-0.64844
				c2.5304-0.79248,5.29303-2.45166,15.07043-10.74268l-1.36438,0.31299c0.9679-0.91015,2.06036-1.86181,3.23907-2.84082
				c0.59125-0.4873,1.19598-0.9917,1.83234-1.48145c0.65411-0.46631,1.32147-0.94238,1.9986-1.4248
				c1.36853-0.94385,2.77612-1.91504,4.19269-2.89209c1.42645-0.96094,2.93604-1.81592,4.3808-2.71875
				c1.46387-0.87305,2.86035-1.8042,4.27032-2.59229c1.40607-0.79443,2.74835-1.57275,3.99042-2.32812
				c2.45898-1.55713,4.62646-2.82422,6.06012-4.03223c1.55756-0.76709,2.91205-1.45068,4.11456-1.99854
				c1.22296-0.50293,2.26575-0.93213,3.15088-1.2959c1.77808-0.70557,2.93951-1.10889,3.65808-1.29346
				c1.43683-0.36914,1.10388,0.13428,0.39105,0.84375c-1.43469,1.42969-4.34814,3.63818,2.00897,1.52295
				c1.68573-1.00244,4.70538-2.5874,8.3905-4.2085c1.86554-0.7627,3.8736-1.5835,5.92889-2.42334
				c2.06531-0.82617,4.2356-1.50391,6.33093-2.26416c1.05298-0.36084,2.08557-0.75439,3.10968-1.08057
				c1.0282-0.31494,2.03149-0.62256,2.99762-0.91846c1.93329-0.59521,3.71124-1.19238,5.24609-1.69775
				c3.08929-0.91016,5.15942-1.69678,5.35431-2.24707l-5.31781,0.95703c-1.76624,0.3501-3.51257,0.79736-5.26953,1.19189
				c-3.52747,0.74219-6.97668,1.78809-10.4411,2.77344c3.35663-1.01026,0.63892-0.67627,1.96509-1.23682
				c3.71545-0.63037,8.78564-1.96484,14.22723-3.47949c2.73865-0.66064,5.55127-1.47998,8.34186-2.1543
				c2.80884-0.62939,5.56348-1.24658,8.11633-1.81885c5.15302-0.88525,9.54785-1.64746,11.96143-1.50439
				c2.41626,0.05908,2.80237,0.66211,0.0816,2.20508c-0.71399,0.10645-1.72675,0.18701-2.87891,0.25879
				c-1.14948,0.11914-2.43738,0.25244-3.70648,0.38428c-2.53461,0.28564-4.99292,0.54102-6.06934,1.01807
				c0.61816,0.57568,4.57782,0.48828,9.75818,0.10303c2.59735-0.08057,5.50574-0.17041,8.45569-0.26123
				c2.95044-0.00391,5.9444,0.09229,8.70679,0.18506c2.8573-0.22607,5.82849-0.35156,8.97723-0.54053
				c3.14142-0.10938,6.43994-0.02881,9.95996,0.0625c6.97522,0.54053,14.85242,1.53271,23.4248,4.57861
				c2.97144,1.01025,3.46997,1.54492,3.98291,2.0293c0.5105,0.48877,1.02002,0.97705,3.89978,2.14648
				c1.09583,0.33594,2.17517,0.61133,3.18494,0.97705c1.01208,0.36182,1.99121,0.71143,2.93945,1.05029
				c1.8894,0.69922,3.67957,1.30518,5.31311,1.99805c1.62366,0.71729,3.14539,1.39014,4.58301,2.02539
				c1.43225,0.64795,2.78577,1.24805,4.01587,1.93506c2.47913,1.33301,4.70752,2.51562,6.7439,3.75293
				c2.01343,1.2793,3.89148,2.50928,5.77405,3.75c1.87671,1.25049,3.672,2.65234,5.65564,4.05615
				c2.0022,1.37842,4.01672,3.02539,6.33728,4.78125c4.63293,3.52197,10.15466,7.96338,17.30029,14.33398
				c8.15955,8.76904,16.8114,18.81299,24.21375,29.78369c7.45288,10.9165,13.41748,22.8501,17.03748,34.12402
				c-0.04517-0.95166,0.32324-0.53125,0.92981,0.71387c0.3031,0.62207,0.66541,1.44971,1.06433,2.41309
				c0.1958,0.48291,0.40454,0.99805,0.62305,1.53711c0.20178,0.54541,0.38513,1.12451,0.58411,1.71582
				c0.76733,2.37402,1.64697,4.99023,2.28992,7.33984c0.59131,2.36328,1.10474,4.41553,1.39844,5.58936
				c0.26929,1.67529,0.76013,5.77734,1.62219,10.53467c0.31018,2.40479,0.66614,4.98682,1.078,7.5376
				c0.39539,2.55371,0.64282,5.1084,1.04712,7.41748c-0.72485-5.47559-0.85474-2.07275-1.64197-5.82812
				c0.40344,2.59473,0.7356,4.93164,1.00537,7.03369c0.15515,1.04932,0.2179,2.04736,0.271,2.98926
				c0.04871,0.94189,0.0946,1.82764,0.1377,2.66064c0.06982,1.6665,0.09839,3.12158,0.09167,4.39307
				c-0.07068,1.2749-0.16577,2.36523-0.27832,3.2998c-0.45007,3.73682-1.17896,4.97461-1.73645,5.55713
				c-0.3175-4.00488-0.57812-7.10107-1.02991-9.76807c-0.49988-2.64941-0.92578-4.90576-1.36682-7.24365
				c-0.52222-2.31934-1.04785-4.71484-1.51819-7.69141c-0.22461-1.49072-0.60449-3.1001-0.90076-4.93066
				C368.1268,170.1718,367.9028,168.11711,367.40915,165.84367z" style="" fill="#210070"></path>
			<path d="M48.84366,129.38469c-0.23047-2.4165-4.23279,5.49023-6.89716,12.05127
				c-1.34241,3.26953-2.38031,6.17627-2.99274,7.06396c-0.58893,0.89209-0.66217-0.18799,0.19458-4.88672
				c-0.56348,1.51758-1.08856,2.93164-1.58093,4.25781c-0.23877,0.6665-0.46967,1.31055-0.6933,1.93457
				c-0.18719,0.63574-0.36829,1.25098-0.54395,1.84766c-0.69147,2.39014-1.25323,4.49658-1.72943,6.43799
				c-0.38074,1.96631-0.68292,3.76562-0.94763,5.52051c-0.12506,0.87744-0.2486,1.74365-0.3728,2.61475
				c-0.11615,0.87109-0.15607,1.76074-0.23425,2.6626c0.21869-0.89795,0.39429-1.67139,0.5722-2.32666
				c0.19867-0.65088,0.36377-1.19141,0.49957-1.63574c0.27753-0.88623,0.44952-1.38477,0.54803-1.60742
				c0.19696-0.44482,0.1001,0.21143-0.03693,1.07568c-0.27472,1.73193-0.70673,4.28027,0.7218,0.56299
				c-4.37756,23.0791-4.15271,46.34326,0.07977,68.32227c4.23889,21.99072,12.60101,42.69728,24.2392,60.9424
				c0.49884,0.87939,0.99585,1.75537,1.49115,2.62793c0.49872,0.87207,1.06812,1.69287,1.60052,2.53613
				c1.08643,1.6709,2.16235,3.33838,3.26984,4.97021c2.3595,3.15479,4.61407,6.34961,7.18707,9.23926
				c4.9422,5.95312,10.45312,11.23145,16.19635,16.1123l4.38751,3.55713c1.47552,1.16406,3.03143,2.2251,4.5448,3.3335
				l2.28632,1.64014c0.7594,0.54932,1.57141,1.02783,2.35498,1.54346c1.58014,1.0083,3.1618,2.01807,4.74622,3.0293
				c1.6189,0.9541,3.26715,1.86426,4.90216,2.7959l2.45947,1.38818l2.53412,1.27002
				c1.69043,0.83936,3.38623,1.68115,5.08868,2.52637c1.73846,0.7627,3.4837,1.52832,5.237,2.29736
				c2.03705,1.19141,3.72339,2.00049,5.00049,2.72314c1.28241,0.71143,2.18787,1.26904,2.78589,1.7002
				c1.19598,0.86279,1.16156,1.21826,0.45062,1.28955c-1.41675,0.14404-5.56433-0.85986-7.84851-1.16699
				c7.29828,3.42969,14.77112,6.49805,22.4574,8.95898c-7.92438-1.9585-15.70209-4.57031-23.37128-7.58105
				c-0.57397,0.28223,1.66327,1.56641,4.71448,3.19678c0.76532,0.4043,1.57843,0.8335,2.4104,1.27246
				c0.83917,0.42432,1.71954,0.80859,2.57678,1.21973c1.72003,0.80908,3.39386,1.6167,4.76776,2.34961
				c2.19379,0.73584,4.42957,1.34766,6.63782,2.0249c-4.57007,0.9209-16.49695-3.26172-28.99719-10.4126
				c-1.58936-0.83984-3.1048-1.87549-4.68475-2.82568c-1.5542-0.99463-3.17737-1.90625-4.69995-2.98975
				c-3.06635-2.13086-6.19861-4.18604-9.09143-6.44629c-1.45905-1.10986-2.94342-2.15088-4.33917-3.25586
				c-1.39301-1.10791-2.76086-2.19629-4.09406-3.25684c-0.6734-0.52197-1.33801-1.03662-1.99268-1.54395
				c-0.63623-0.52979-1.26276-1.05176-1.87848-1.56445c-1.23694-1.01953-2.44403-1.98779-3.61536-2.89551
				c2.72906,2.28711,4.68622,4,6.18188,5.08936c1.49249,1.09326,2.40045,1.7124,2.8866,1.98828
				c0.97217,0.55225,0.258-0.26611-0.84027-1.40967c-0.55103-0.56836-1.19031-1.22754-1.77563-1.83105
				c-0.57922-0.60742-1.0556-1.21338-1.33832-1.60596c-0.54749-0.80664-0.26337-0.82568,2.15839,0.90381
				c-2.22156-1.91748-4.38086-3.90674-6.57098-5.85449c1.48816,1.27344,3.38855,2.80371,5.6377,4.58154
				c1.11017,0.90625,2.41046,1.74951,3.73853,2.7168c1.34741,0.94238,2.74988,1.979,4.27716,3.00537
				c6.14276,4.06543,13.74554,8.6709,22.66351,13.2832c-1.56335-0.77637-3.0415-1.70703-4.5528-2.5752
				c-1.50024-0.8877-3.02118-1.73926-4.50513-2.64941l-4.38574-2.83252l-2.19318-1.41064l-2.12531-1.50781l-4.24579-3.01025
				c-1.40051-1.02051-2.7403-2.11963-4.11328-3.17139c-2.77521-2.07031-5.35889-4.36084-7.98566-6.58643
				c-1.33606-1.08838-2.55975-2.29688-3.82159-3.45996c-1.25378-1.17236-2.50543-2.34326-3.75482-3.51172
				c-1.198-1.22168-2.39386-2.44092-3.58728-3.65771l-1.79224-1.82227c-0.5932-0.61035-1.1413-1.26074-1.71393-1.8877
				c-1.13538-1.26416-2.26825-2.52539-3.39844-3.78418c-1.14832-1.24463-2.16022-2.59766-3.24573-3.88574
				c-1.05615-1.31152-2.16144-2.58203-3.17444-3.91748c-1.00342-1.34326-2.00409-2.68359-3.00183-4.01953l-1.49854-2.00146
				l-1.40399-2.05859c-0.93292-1.37354-1.86298-2.74268-2.78992-4.10742c-0.95142-1.35107-1.74567-2.79297-2.62433-4.17871
				c-0.85254-1.40088-1.72894-2.78369-2.55804-4.18701c-0.78821-1.42676-1.57349-2.84863-2.35571-4.26514
				c-0.77429-1.42188-1.59991-2.81299-2.27881-4.26953c-0.71216-1.44238-1.42139-2.87842-2.12756-4.30859
				c-0.34888-0.71729-0.71851-1.4248-1.04919-2.14697l-0.95123-2.17969c-5.16998-11.56154-8.96674-23.27687-11.5257-34.68703
				c0.51685,1.29395,1.51318,4.8042,1.08191,0.60303c-0.33289-2.06006-0.77661-3.99316-1.06873-5.85156
				c-0.29547-1.85791-0.60968-3.61523-0.93561-5.28369c-0.16998-0.8335-0.33551-1.64551-0.49683-2.43701
				c-0.13531-0.79443-0.26715-1.56836-0.39563-2.32227c-0.2666-1.50781-0.54187-2.93701-0.81799-4.2959
				c-0.61115-2.71484-0.93829-5.16455-1.35358-7.39404c-0.38263-2.23047-0.75903-4.24707-0.85248-6.10889l0.1358,1.85986
				c0.05762,0.61963,0.14673,1.23828,0.21869,1.85645l0.45691,3.70068c0.19275-2.62891,0.16223-5.65771,0.30548-8.93018
				c0.03973-1.63574,0.05658-3.33301,0.05774-5.07031c0.03601-1.73584,0.14618-3.5083,0.20038-5.30225
				c0.18158-7.17871,0.93182-14.63037,1.99585-20.89062c0.93976-3.3418,2.02399-6.33887,2.97211-9.35303
				c1.08569-2.97119,2.17151-5.94238,3.35809-9.18945c0.63928-1.60498,1.28723-3.28174,1.95184-5.06787
				c0.34021-0.89014,0.65106-1.82031,1.0282-2.75977c0.38214-0.93799,0.77637-1.90527,1.18451-2.90723
				c1.5462-4.04053,3.46796-8.56006,5.79456-13.88184l0.50226,1.12109l2.23712-4.09473
				c0.76099-1.35547,1.45013-2.74854,2.29144-4.05762l2.42957-3.9751l1.21393-1.98486l1.30103-1.93018
				c-1.19275,1.97754-1.38593,2.65234-1.25293,2.71045c0.14056,0.0625,0.60187-0.49365,0.95874-0.83984
				c-0.46429,1.29297-1.08112,2.02393-2.81158,4.78125c0.33533,0.86182,2.12299-0.52637,4.54169-3.11768
				c2.57727-2.49902,5.72345-6.2417,9.13232-9.97461c-0.95892,1.26025-1.91779,2.52002-2.8067,3.68848
				c-0.84418,1.2002-1.5636,2.34766-2.14026,3.31201c2.34918-3.37012,8.13586-10.50049,12.51117-15.08936
				c4.52588-4.48096,7.29089-6.6792,3.27258-0.93994c-0.9696,1.09717-1.87604,2.12598-2.67328,3.13965
				c-0.81702,0.99707-1.59277,1.92285-2.33295,2.78809c-0.73138,0.87207-1.46478,1.65479-2.09991,2.43848
				c-0.64423,0.77686-1.25073,1.50879-1.82678,2.20361c-1.16626,1.38086-2.25769,2.58301-3.27374,3.71631
				c-0.9848,1.15869-1.9032,2.23926-2.81219,3.30859c-0.90662,1.07471-1.8526,2.11523-2.74335,3.28369
				c-0.87836,1.17578-1.78339,2.42969-2.74847,3.84717c-0.48248,0.70898-0.98004,1.4585-1.49664,2.25928
				c-0.49432,0.81299-0.9726,1.6958-1.48926,2.63232c-0.51239,0.93896-1.04517,1.94043-1.60181,3.01562
				c-0.27551,0.53906-0.55969,1.09473-0.85321,1.66895C49.37656,128.14104,49.11996,128.75529,48.84366,129.38469z" style="" fill="#210070"></path>
			<path d="M114.19815,48.68938c-1.00085,0.51123-1.85901,0.9502-2.58942,1.32324c-0.71906,0.39307-1.31226,0.7168-1.79431,0.98047
				c-0.96814,0.51953-1.5058,0.77197-1.72504,0.82471c-0.4386,0.10498,0.39716-0.58838,1.60327-1.52637
				c1.18591-0.9707,2.83459-2.03418,3.8974-2.85938c1.06763-0.81641,1.57971-1.34619,0.58496-1.06885l3.5119-2.04443
				c1.18909-0.64795,2.39996-1.25635,3.59943-1.88623l3.60785-1.87305c1.19696-0.63623,2.4527-1.15137,3.6767-1.73291
				c0.2193,0.1958-0.53857,0.76611-1.80951,1.5332c-1.27045,0.77246-3.00732,1.82812-4.80103,2.91846
				C118.32108,45.35344,114.67038,47.90276,114.19815,48.68938z" style="" fill="#210070"></path>
			<path d="M230.74069,368.3349c0.78955,0.28271,3.92273-0.09131,7.60229-0.8042c3.65894-0.81494,7.89954-1.77441,10.92896-2.60352
				c1.46545-0.51904,2.7926-0.98877,4.026-1.42578c1.21936-0.47314,2.32251-0.97656,3.38586-1.42676
				c1.0592-0.45703,2.0708-0.89307,3.07776-1.32764c0.50354-0.21387,1.00586-0.42725,1.51257-0.64209
				c0.49829-0.23682,1.00073-0.47559,1.5127-0.71875c2.04138-0.98535,4.29028-1.89893,7.00073-3.12451
				c2.67786-1.29883,5.96484-2.58057,9.94775-4.5791c-5.58704,4.3335-2.02197,3.396,4.62488,0.74854
				c1.64441-0.68652,3.42529-1.57373,5.31921-2.46484c0.94324-0.45557,1.90784-0.92139,2.88086-1.39111
				c0.94946-0.51465,1.9071-1.03369,2.86035-1.55029c0.9574-0.51514,1.91016-1.02832,2.84595-1.53223
				c0.46985-0.25049,0.93555-0.49854,1.39526-0.74365c0.44836-0.2627,0.89087-0.52246,1.32617-0.77783
				c1.74133-1.02246,3.38196-1.95996,4.82971-2.74023c-1.81567,1.36279-3.92053,3.14844-6.39172,4.98242
				c-1.2511,0.89844-2.56726,1.84375-3.9325,2.82373c-0.68835,0.48535-1.38892,0.979-2.09998,1.47998
				c-0.7356,0.46289-1.48206,0.93262-2.23706,1.40771c-1.51453,0.94531-3.07336,1.90088-4.66223,2.84912
				c-1.62354,0.88428-3.29114,1.73535-4.96594,2.5752l-2.52368,1.2334c-0.85437,0.38086-1.72559,0.72119-2.58765,1.06885
				c-1.72815,0.68701-3.45374,1.33252-5.15881,1.91895c0.64978-0.66943-2.05359,0.10938-5.67566,1.26074
				c-0.90137,0.29834-1.8623,0.61621-2.84436,0.94141c-0.99414,0.2876-2.00964,0.58105-3.00708,0.86963
				c-1.98853,0.58398-3.90527,1.14697-5.43677,1.59668c-4.54016,1.95801-2.39148,2.36426-3.9071,3.71094
				c-0.77087,0.64551-2.43225,1.6792-6.46021,2.90088c-2.01392,0.60498-4.57104,1.47852-7.94458,2.14062
				c-1.68445,0.35107-3.55237,0.74072-5.62488,1.17236c-2.08972,0.33398-4.39465,0.65479-6.9281,1.01367
				c-1.87097,0.18164-4.43811,0.2876-7.20575,0.48535c-1.38458,0.08545-2.81897,0.21631-4.2486,0.27783
				c-1.43115,0.02441-2.85443,0.04932-4.2099,0.07227c-1.35529,0.01709-2.64252,0.02393-3.80127,0.01367
				c-1.15875,0-2.18896-0.12842-3.03015-0.20801c-1.68292-0.18994-2.60785-0.44238-2.30322-0.79492
				c-1.28625-0.16113-2.55377-0.17676-3.82501-0.13086c-1.26996,0.0249-2.54291,0.0498-3.83173,0.0752
				c-1.29053,0.02148-2.60028,0.02002-3.93732-0.08887c-1.33936-0.08252-2.69727-0.36084-4.08063-0.84766l-2.77875-0.95557
				c8.37946,0.8916,16.81311,0.94775,25.18054,0.60547c0.92462,0.17676,2.84241,0.52588,5.13184,0.38525
				c-1.19769-0.22314-0.09033-0.49268,1.96747-0.84326c2.0545-0.43213,5.05841-0.95312,7.68469-1.46875
				c5.24652-1.21777,8.92059-2.47656,0.88208-2.31104c-11.19348,1.17334-22.51001,1.24072-33.72198,0.2251
				c-2.034-0.28467-2.81238-0.6377-2.67511-0.77539c0.14014-0.16357,1.20184-0.17334,2.89935-0.23486
				c1.69519-0.03662,4.01422-0.01221,6.65753,0.06641c2.64905-0.01904,5.62701-0.06836,8.63501-0.03467
				c2.18903,0.11279,4.0943,0.13379,5.77313,0.18896c1.67755,0.02148,3.13403,0.12891,4.41272,0.04688
				c2.56165-0.09082,4.45239-0.19482,6.14777-0.34277c1.69952-0.10938,3.18524-0.44482,4.96173-0.78271
				c0.88525-0.18213,1.84302-0.37988,2.93237-0.604C228.13474,368.97748,229.35153,368.7226,230.74069,368.3349z" style="" fill="#210070"></path>
			<path d="M147.48001,364.63031l-1.62543-0.9707c2.3728,0.74902,4.72131,1.5708,7.10956,2.26074l7.19928,1.94287l7.28125,1.59033
				c1.20764,0.29053,2.43933,0.4624,3.66339,0.66943l3.67419,0.60645C165.54178,369.51996,156.40945,367.41595,147.48001,364.63031z
				" style="" fill="#210070"></path>
			<path d="M325.07785,317.84808c-0.91016,1.10938-1.81714,2.15967-2.75562,3.14453
				c-0.97021,0.95312-1.94373,1.86914-2.91626,2.78467c-0.96753,0.92041-1.93445,1.84082-2.91821,2.77686
				c-1.0127,0.9043-2.02246,1.84668-3.02966,2.8667l-1.71619-0.94385l3.4436-2.49854
				c1.15515-0.82959,2.22412-1.75879,3.34448-2.63525l3.33472-2.67383C322.952,319.74945,324.00302,318.789,325.07785,317.84808z" style="" fill="#210070"></path>
			<path d="M53.1373,298.69427c-1.44421-1.51221-3.289-3.72998-5.00104-6.47803c-0.88239-1.3584-1.79388-2.81104-2.71576-4.30762
				c-0.90033-1.50781-1.72198-3.10791-2.58453-4.67529c-0.82697-1.58496-1.74976-3.11279-2.46259-4.67383
				c-0.76086-1.53906-1.49377-3.02197-2.17584-4.40186c-1.44995-2.72412-2.49603-5.12451-3.48999-6.60107
				c2.07806,5.34521,1.70129,3.3584,2.49884,4.53662c-0.61615-1.73389-1.18805-3.48389-1.78125-5.22217
				c-0.58258-1.74219-1.20447-3.4668-1.67096-5.24561C39.34091,274.00824,44.74423,286.18109,53.1373,298.69427z" style="" fill="#210070"></path>
			<path d="M357.26498,270.21088c0.48315-1.12012,0.95471-2.17773,1.36316-3.2041c0.37158-1.04053,0.72522-2.03125,1.06396-2.98047
				c0.6499-1.90674,1.28442-3.62646,1.74866-5.2876c0.44092-1.66553,0.85388-3.22462,1.2561-4.74367
				c0.19763-0.75781,0.3927-1.50537,0.58716-2.25098c0.18469-0.74805,0.32263-1.50732,0.49072-2.26367
				c0.63672-3.03467,1.43127-6.11963,2.17102-9.87891c0.88049-3.72607,1.74292-8.10547,2.87744-13.6582
				c1.14502-4.82568,0.12646,6.17236,1.479-0.87598c1.40063-7.04883,0.6366-8.82764,0.55798-12.33203l-0.80359,2.69385
				c0.38806-1.33936,0.87378-3.42578,1.28186-5.67627c0.34558-2.25342,0.70264-4.66504,1.07336-6.63135
				c0.71729-3.96484,1.39856-6.19482,2.40039-1.49365c-0.08203,1.81494-0.14246,3.56787-0.18433,5.26562
				c-0.06165,1.69727-0.01404,3.34424-0.14343,4.93408c-0.07483,1.59326-0.14746,3.1377-0.21802,4.63965
				c-0.05457,1.50391-0.08118,2.96875-0.21521,4.38721c-0.23291,2.83936-0.30469,5.55957-0.55188,8.16113
				c-0.25525,2.60889-0.50073,5.11865-0.74121,7.57617c-0.35986,2.44189-0.72034,4.83984-1.11414,7.2334
				c-0.3938,2.39307-1.02209,4.73047-1.60681,7.12744c-0.55798,2.40674-1.41956,4.77148-2.30688,7.22316
				c-0.46167,1.21924-0.90002,2.47217-1.45776,3.71143c-0.56873,1.23486-1.16858,2.48828-1.80396,3.76367
				c-1.09302,0.98389-2.16284,1.96143-3.25867,2.91211l-2.55432,6.25098c-0.40649,1.05322-0.88574,2.07178-1.36743,3.09033
				l-1.43079,3.06543c-0.29968,0.36572-0.51221,0.40771-0.88794,0.86865c-0.38025,0.4585-0.88306,1.35547-1.95715,3.33252
				c-1.98523,4.26514-0.93176,2.89014,0.68982,0.56543c0.40454-0.58203,0.84766-1.21973,1.28162-1.84424
				c0.40601-0.64062,0.80505-1.26709,1.16736-1.80127c0.72339-1.06787,1.29187-1.76904,1.41736-1.48779
				c-0.91187,1.99951-1.80017,4.01611-2.849,5.94971c-1.02271,1.94678-1.99255,3.93018-3.06384,5.85645l-3.31934,5.72803
				c-1.11084,1.91064-2.37097,3.72559-3.55261,5.59766c-1.9718,2.57178,1.09924-2.5166,0.38257-1.85059
				c-1.00293,1.20605-1.91333,2.38477-2.75562,3.5415c-0.89209,1.11963-1.72253,2.2124-2.50134,3.29248
				c-0.77979,1.0791-1.51282,2.1416-2.22144,3.18994c-0.72583,1.03418-1.47693,2.01367-2.19727,3.00293
				c-2.85254,3.97559-5.90186,7.58447-10.32104,10.79443c0.94409-0.98438,1.8092-2.04541,2.68494-3.09229l2.62427-3.13623
				c0.89209-1.02637,1.71533-2.11279,2.53223-3.20264l2.46375-3.24805c-6.37744,7.47461-12.76868,13.26416-18.8501,18.17773
				c-6.04272,4.97949-12.03076,8.80518-17.78955,12.44189c8.10327-5.37549,14.64819-11.07275,20.29944-16.74365
				c1.37537-1.4541,2.72559-2.88184,4.05566-4.28809c1.30762-1.42383,2.49805-2.91699,3.71863-4.34424
				c0.60315-0.71875,1.20288-1.43408,1.79968-2.14551c0.59229-0.71436,1.12878-1.47168,1.69104-2.19971
				c1.10925-1.46484,2.20996-2.91846,3.30652-4.36621c1.03259-1.4917,2.0614-2.97754,3.09058-4.46436l1.54517-2.22168
				c0.50671-0.74658,0.97095-1.52539,1.4624-2.28613c0.97937-1.521,1.96301-3.04883,2.9552-4.58984
				c0.94104-1.5708,1.89001-3.15527,2.85095-4.75977c0.4884-0.7959,0.97974-1.59717,1.47473-2.40381
				c0.46228-0.82617,0.92786-1.6582,1.39722-2.49756c0.95532-1.66748,1.92603-3.3623,2.91626-5.09082
				c0.92981-1.76123,1.89722-3.54736,2.90979-5.36572c0.25281-0.45459,0.50708-0.91211,0.76294-1.37256
				c0.23645-0.46973,0.47424-0.94189,0.7135-1.41748C356.27219,272.14154,356.76547,271.18207,357.26498,270.21088z" style="" fill="#210070"></path>
		</g>
		<circle cx="200" cy="200" r="161.72063" style="" fill="#210070"></circle>
	</g>
</g>


<desc>Created with Snap</desc><defs></defs></g><g><g transform="matrix(0.5,0,0,-0.5,0,0)"><path d="M1087 39Q1099 31 1092 15Q1085 -1 1066 -18Q1047 -34 1021 -46Q995 -58 969 -57Q944 -56 920 -42Q896 -28 877 1Q859 31 847 75Q836 119 836 180L836 1128Q836 1186 824 1218Q813 1250 797 1264Q782 1279 765 1281Q749 1284 739 1284Q728 1284 711 1281Q694 1278 678 1261Q663 1245 652 1209Q641 1174 641 1108L641 2Q644 2 647 -2Q651 -5 651 -8Q651 -16 639 -25Q628 -33 611 -41Q594 -48 572 -53Q551 -57 532 -57Q512 -57 496 -52Q481 -47 481 -18L481 1128Q481 1186 470 1218Q460 1250 445 1264Q430 1279 413 1281Q397 1284 385 1284Q375 1284 358 1281Q342 1279 326 1264Q310 1250 298 1218Q287 1186 287 1128L287 221Q287 85 242 14Q197 -57 111 -57Q82 -57 63 -47Q45 -37 34 -22Q23 -7 18 10Q14 27 14 41Q14 48 18 50Q23 52 31 52Q39 52 49 52Q59 53 70 57Q80 61 90 73Q101 85 109 108Q117 131 122 166Q127 201 127 252L127 1108Q127 1198 149 1260Q172 1322 208 1361Q244 1400 289 1417Q335 1434 381 1434Q394 1434 416 1431Q438 1429 464 1420Q491 1411 518 1394Q545 1378 569 1350Q588 1378 611 1394Q634 1411 656 1420Q679 1429 699 1431Q720 1434 735 1434Q783 1434 829 1417Q876 1400 912 1361Q949 1322 972 1260Q995 1198 995 1108L995 197Q995 165 1002 139Q1010 114 1022 94Q1035 75 1052 61Q1069 48 1087 39ZM1665 596Q1665 539 1645 479Q1626 419 1587 365Q1549 312 1492 269Q1436 227 1362 205Q1372 179 1388 155Q1405 132 1428 115Q1451 98 1481 88Q1512 78 1552 78Q1612 78 1655 100Q1698 123 1727 160Q1757 197 1775 243Q1793 289 1802 336Q1809 370 1830 381Q1852 393 1874 387Q1897 381 1913 361Q1930 342 1927 315Q1923 284 1913 244Q1904 204 1885 163Q1866 122 1836 82Q1807 43 1764 12Q1721 -19 1663 -38Q1605 -57 1530 -57Q1460 -57 1394 -30Q1329 -2 1278 49Q1228 101 1197 176Q1167 252 1167 348Q1167 445 1194 528Q1221 612 1265 673Q1309 734 1365 768Q1421 803 1480 803Q1523 803 1557 788Q1592 773 1616 745Q1640 718 1652 680Q1665 642 1665 596ZM1335 354Q1335 345 1336 336Q1337 327 1337 317Q1375 335 1406 363Q1437 391 1459 427Q1481 463 1493 505Q1505 548 1505 594Q1505 628 1493 647Q1482 666 1462 666Q1437 666 1417 649Q1398 632 1383 604Q1369 577 1359 542Q1350 508 1344 473Q1338 438 1336 406Q1334 375 1335 354ZM1802 33L1802 1262Q1802 1284 1798 1297Q1795 1310 1791 1317Q1788 1325 1784 1329Q1781 1334 1781 1339Q1781 1345 1787 1349Q1793 1353 1803 1356Q1813 1359 1824 1360Q1836 1362 1847 1362Q1898 1362 1927 1335Q1957 1309 1957 1272L1957 633Q1982 667 2009 697Q2037 728 2067 751Q2097 775 2129 789Q2162 803 2197 803Q2245 803 2279 784Q2313 766 2335 735Q2358 704 2368 664Q2379 625 2379 582Q2379 523 2360 471Q2341 420 2312 378Q2283 336 2248 303Q2214 270 2183 248Q2190 215 2202 184Q2215 154 2233 130Q2251 106 2274 92Q2298 78 2328 78Q2363 78 2393 99Q2424 121 2447 153Q2471 186 2487 224Q2503 263 2510 297Q2516 328 2528 342Q2541 356 2555 357Q2570 359 2585 350Q2600 341 2611 326Q2622 312 2627 294Q2633 276 2629 260Q2615 219 2589 164Q2563 109 2523 60Q2483 11 2429 -23Q2375 -57 2305 -57Q2245 -57 2195 -26Q2146 5 2110 52Q2075 99 2056 155Q2037 211 2037 262Q2037 278 2051 294Q2065 311 2086 330Q2108 350 2132 374Q2157 398 2178 428Q2200 458 2214 495Q2228 533 2228 580Q2228 618 2209 642Q2191 666 2162 666Q2144 666 2118 652Q2093 639 2065 606Q2037 573 2009 518Q1981 464 1957 383L1957 31Q1957 16 1956 0Q1956 -15 1950 -28Q1945 -40 1933 -49Q1922 -57 1900 -57Q1885 -57 1867 -54Q1850 -50 1835 -41Q1821 -31 1811 -14Q1802 4 1802 33ZM3098 78Q3129 78 3151 100Q3174 122 3190 155Q3207 188 3217 226Q3228 265 3235 299Q3242 331 3255 345Q3269 360 3285 360Q3297 360 3309 352Q3322 345 3332 333Q3343 321 3349 306Q3356 291 3356 276Q3356 274 3356 271Q3356 268 3354 262Q3341 211 3318 155Q3296 99 3261 52Q3226 5 3176 -26Q3127 -57 3061 -57Q3007 -57 2967 -34Q2927 -11 2904 27Q2873 -8 2829 -33Q2786 -57 2728 -57Q2668 -57 2622 -33Q2577 -9 2546 32Q2515 74 2499 130Q2484 187 2484 252Q2484 380 2525 482Q2566 584 2634 655Q2702 727 2789 765Q2877 803 2971 803Q3013 803 3039 780Q3065 757 3065 717Q3065 691 3059 680Q3054 670 3039 670Q3025 670 3010 672Q2995 674 2979 674Q2921 674 2861 648Q2801 623 2752 570Q2704 518 2673 437Q2642 357 2642 246Q2642 165 2673 121Q2704 78 2758 78Q2800 78 2828 109Q2856 141 2873 184L2873 500Q2873 515 2871 525Q2870 535 2868 542Q2867 549 2866 554Q2865 560 2865 565Q2865 581 2880 590Q2896 600 2918 600Q2969 600 2999 573Q3029 547 3029 510L3029 172Q3029 155 3033 138Q3037 122 3045 108Q3053 95 3066 86Q3080 78 3098 78ZM3473 -57Q3413 -57 3364 -36Q3315 -15 3280 26Q3246 68 3227 129Q3209 191 3209 272Q3209 390 3242 482Q3275 575 3332 641Q3389 708 3464 747Q3539 787 3623 799L3623 1262Q3623 1284 3619 1297Q3616 1310 3612 1317Q3609 1325 3605 1329Q3602 1334 3602 1339Q3602 1345 3608 1349Q3614 1353 3624 1356Q3634 1359 3645 1360Q3657 1362 3668 1362Q3719 1362 3748 1335Q3778 1309 3778 1272L3778 172Q3778 155 3782 138Q3786 122 3794 108Q3803 95 3816 86Q3830 78 3848 78Q3879 78 3901 100Q3924 122 3940 155Q3957 188 3967 226Q3978 265 3985 299Q3991 331 4005 345Q4019 360 4034 360Q4046 360 4059 352Q4072 345 4082 333Q4093 321 4099 306Q4106 291 4106 276Q4106 274 4106 271Q4106 268 4104 262Q4091 211 4068 155Q4046 99 4010 52Q3975 5 3926 -26Q3877 -57 3811 -57Q3758 -57 3718 -35Q3678 -13 3655 23Q3621 -12 3576 -35Q3532 -57 3473 -57ZM3504 78Q3544 78 3573 101Q3603 124 3623 158L3623 664Q3573 655 3526 630Q3480 606 3444 562Q3409 518 3388 450Q3367 383 3367 287Q3367 231 3378 191Q3390 152 3408 127Q3427 102 3452 90Q3477 78 3504 78ZM4865 788Q4827 788 4800 814Q4774 840 4774 891Q4774 902 4775 913Q4777 925 4780 934Q4783 944 4787 950Q4792 956 4797 956Q4802 956 4806 953Q4811 950 4818 946Q4826 942 4839 939Q4852 936 4875 936Q4930 936 4988 953Q5046 971 5093 1003Q5141 1036 5171 1082Q5202 1128 5202 1186Q5202 1207 5195 1227Q5188 1247 5174 1262Q5160 1278 5138 1288Q5117 1298 5088 1298Q5008 1298 4941 1263Q4875 1228 4821 1168Q4767 1109 4726 1031Q4686 953 4659 866Q4632 780 4618 691Q4604 602 4604 522Q4604 426 4616 344Q4628 263 4655 204Q4682 145 4727 111Q4772 78 4838 78Q4898 78 4944 108Q4990 139 5024 191Q5059 243 5083 312Q5108 382 5126 461Q5144 540 5157 624Q5170 708 5180 788Q5183 808 5209 818Q5235 829 5264 829Q5276 829 5289 826Q5302 823 5311 817Q5321 811 5325 801Q5330 791 5327 776Q5319 736 5310 649Q5301 563 5301 442Q5301 341 5302 268Q5304 195 5307 142Q5310 89 5313 53Q5316 18 5319 -6Q5325 -15 5325 -20Q5325 -30 5315 -39Q5305 -48 5290 -55Q5275 -62 5256 -66Q5238 -70 5221 -70Q5194 -70 5180 -59Q5166 -48 5159 -23Q5153 3 5151 45Q5149 88 5147 150Q5124 101 5090 59Q5056 17 5014 -15Q4972 -46 4922 -64Q4873 -82 4819 -82Q4735 -82 4665 -50Q4596 -18 4546 53Q4496 124 4468 238Q4441 353 4441 518Q4441 631 4462 744Q4484 858 4524 962Q4565 1066 4623 1156Q4682 1246 4755 1312Q4828 1378 4914 1416Q5001 1454 5098 1454Q5161 1454 5210 1434Q5260 1414 5294 1378Q5328 1343 5346 1295Q5364 1248 5364 1194Q5364 1105 5321 1030Q5278 956 5208 902Q5138 848 5048 818Q4958 788 4865 788ZM5616 1190L5616 606Q5627 627 5637 662Q5648 698 5657 741Q5667 784 5675 831Q5683 878 5689 923Q5695 968 5698 1007Q5702 1047 5702 1075Q5702 1177 5687 1224Q5672 1272 5647 1272Q5639 1272 5633 1264Q5627 1256 5623 1243Q5619 1231 5617 1216Q5616 1202 5616 1190ZM5907 297Q5913 327 5925 340Q5938 354 5952 355Q5967 357 5982 348Q5997 340 6008 326Q6019 312 6024 294Q6030 277 6026 260Q6012 219 5986 164Q5960 109 5920 60Q5880 11 5826 -23Q5772 -57 5702 -57Q5643 -57 5598 -38Q5553 -18 5522 17Q5492 53 5476 102Q5461 152 5461 213L5461 1145Q5461 1202 5475 1250Q5490 1299 5515 1333Q5541 1368 5575 1387Q5609 1407 5647 1407Q5692 1407 5723 1390Q5754 1374 5774 1347Q5794 1320 5805 1285Q5817 1250 5822 1213Q5827 1177 5828 1141Q5829 1106 5829 1077Q5829 1002 5815 919Q5801 837 5779 757Q5758 677 5732 603Q5707 530 5683 473Q5660 416 5641 380Q5623 344 5616 338L5616 219Q5616 157 5642 117Q5668 78 5725 78Q5760 78 5790 99Q5821 121 5844 153Q5868 186 5884 224Q5900 263 5907 297ZM6020 985Q5995 985 5972 995Q5950 1005 5933 1022Q5917 1039 5907 1061Q5897 1084 5897 1110Q5897 1137 5907 1160Q5917 1183 5933 1199Q5950 1216 5972 1225Q5995 1235 6020 1235Q6047 1235 6070 1225Q6093 1216 6109 1199Q6126 1183 6135 1160Q6145 1137 6145 1110Q6145 1084 6135 1061Q6126 1039 6109 1022Q6093 1005 6070 995Q6047 985 6020 985ZM6067 692L6067 172Q6067 165 6068 149Q6069 134 6074 118Q6079 102 6090 90Q6101 78 6121 78Q6151 78 6173 100Q6196 122 6212 155Q6229 188 6240 226Q6251 265 6258 299Q6264 330 6276 344Q6289 358 6303 359Q6318 361 6332 352Q6347 343 6358 328Q6370 314 6375 296Q6381 278 6377 262Q6363 211 6340 155Q6318 99 6283 52Q6248 5 6199 -26Q6150 -57 6084 -57Q6043 -57 6011 -42Q5979 -26 5957 0Q5935 26 5923 61Q5912 96 5912 135L5912 682Q5912 711 5907 724Q5903 737 5903 748Q5903 763 5919 772Q5935 782 5957 782Q6008 782 6037 755Q6067 729 6067 692ZM6489 522Q6489 584 6502 629Q6516 675 6540 704Q6564 734 6595 748Q6627 762 6663 762Q6704 762 6743 742Q6782 722 6812 681Q6843 640 6861 577Q6880 514 6880 428Q6880 368 6872 308Q6865 249 6849 195Q6860 191 6870 190Q6881 190 6892 190Q6925 190 6950 202Q6976 214 6994 234Q7013 254 7024 281Q7035 308 7040 338Q7042 350 7053 358Q7065 366 7080 369Q7095 372 7111 369Q7128 366 7140 355Q7152 345 7157 326Q7163 308 7157 279Q7148 237 7127 200Q7107 164 7076 136Q7045 108 7003 92Q6961 76 6909 76Q6881 76 6855 79Q6829 82 6804 90Q6766 24 6705 -17Q6644 -57 6554 -57Q6483 -57 6429 -32Q6376 -7 6339 38Q6303 84 6284 147Q6266 210 6266 285L6266 1262Q6266 1284 6262 1297Q6259 1310 6255 1317Q6252 1325 6248 1329Q6245 1334 6245 1339Q6245 1345 6251 1349Q6257 1353 6267 1356Q6277 1359 6288 1360Q6300 1362 6311 1362Q6362 1362 6391 1335Q6421 1309 6421 1272L6421 313Q6421 262 6430 219Q6439 176 6457 144Q6475 113 6502 95Q6530 78 6567 78Q6605 78 6632 97Q6659 117 6677 150Q6633 181 6598 222Q6564 264 6539 312Q6515 361 6502 414Q6489 468 6489 522ZM6616 530Q6616 456 6642 390Q6669 324 6714 276Q6720 312 6722 347Q6724 383 6724 412Q6724 515 6702 571Q6681 627 6653 627Q6633 627 6624 600Q6616 574 6616 530ZM7486 -57Q7450 -57 7412 -46Q7375 -35 7344 -8Q7314 19 7294 63Q7275 108 7275 176Q7275 275 7301 385Q7328 496 7378 629L7222 629L7199 629Q7198 599 7195 553Q7193 507 7187 455Q7181 403 7171 350Q7162 297 7148 252Q7138 220 7116 215Q7095 210 7074 222Q7053 235 7040 259Q7027 283 7034 309Q7042 340 7048 384Q7054 429 7057 478Q7061 528 7063 577Q7065 627 7066 666Q7028 687 7003 719Q6978 752 6978 797Q6978 818 6986 835Q6995 853 7009 865Q7023 878 7042 884Q7061 891 7081 891Q7099 891 7118 886Q7138 881 7155 868Q7173 855 7187 834Q7201 813 7210 782Q7235 779 7252 777Q7270 776 7282 775Q7294 774 7302 774Q7310 774 7318 774L7425 774Q7434 774 7451 763Q7469 752 7486 734Q7503 717 7514 697Q7526 677 7523 659Q7523 653 7516 630Q7509 607 7499 572Q7489 537 7477 491Q7465 446 7455 396Q7445 346 7438 292Q7431 239 7431 188Q7431 167 7436 147Q7441 127 7451 111Q7461 96 7476 87Q7492 78 7513 78Q7548 78 7573 100Q7598 122 7615 155Q7632 188 7642 226Q7653 265 7660 299Q7666 331 7680 345Q7694 360 7709 360Q7721 360 7734 352Q7747 345 7757 333Q7768 321 7774 306Q7781 291 7781 276Q7781 271 7780 268Q7779 265 7779 262Q7765 211 7742 155Q7720 99 7685 52Q7650 5 7601 -26Q7552 -57 7486 -57ZM8248 78Q8279 78 8301 100Q8324 122 8340 155Q8357 188 8367 226Q8378 265 8385 299Q8392 331 8405 345Q8419 360 8435 360Q8447 360 8459 352Q8472 345 8482 333Q8493 321 8499 306Q8506 291 8506 276Q8506 274 8506 271Q8506 268 8504 262Q8491 211 8468 155Q8446 99 8411 52Q8376 5 8326 -26Q8277 -57 8211 -57Q8157 -57 8117 -34Q8077 -11 8054 27Q8023 -8 7979 -33Q7936 -57 7878 -57Q7818 -57 7772 -33Q7727 -9 7696 32Q7665 74 7649 130Q7634 187 7634 252Q7634 380 7675 482Q7716 584 7784 655Q7852 727 7939 765Q8027 803 8121 803Q8163 803 8189 780Q8215 757 8215 717Q8215 691 8209 680Q8204 670 8189 670Q8175 670 8160 672Q8145 674 8129 674Q8071 674 8011 648Q7951 623 7902 570Q7854 518 7823 437Q7792 357 7792 246Q7792 165 7823 121Q7854 78 7908 78Q7950 78 7978 109Q8006 141 8023 184L8023 500Q8023 515 8021 525Q8020 535 8018 542Q8017 549 8016 554Q8015 560 8015 565Q8015 581 8030 590Q8046 600 8068 600Q8119 600 8149 573Q8179 547 8179 510L8179 172Q8179 155 8183 138Q8187 122 8195 108Q8203 95 8216 86Q8230 78 8248 78ZM8394 33L8394 1262Q8394 1284 8390 1297Q8387 1310 8383 1317Q8380 1325 8376 1329Q8373 1334 8373 1339Q8373 1345 8379 1349Q8385 1353 8395 1356Q8405 1359 8416 1360Q8428 1362 8439 1362Q8490 1362 8519 1335Q8549 1309 8549 1272L8549 600Q8570 643 8594 680Q8619 717 8647 744Q8676 772 8708 787Q8741 803 8779 803Q8830 803 8863 784Q8896 765 8915 735Q8934 705 8941 668Q8949 631 8949 596L8949 172Q8949 165 8950 149Q8951 134 8956 118Q8961 102 8971 90Q8982 78 9002 78Q9033 78 9055 100Q9078 122 9094 155Q9111 188 9121 226Q9132 265 9139 299Q9145 330 9157 344Q9170 358 9184 359Q9199 361 9214 352Q9229 343 9240 328Q9251 314 9256 296Q9262 278 9258 262Q9244 211 9221 155Q9199 99 9164 52Q9129 5 9080 -26Q9031 -57 8965 -57Q8924 -57 8892 -42Q8861 -26 8838 0Q8816 26 8804 61Q8793 96 8793 135L8793 551Q8793 575 8792 596Q8791 617 8786 633Q8782 649 8773 658Q8765 668 8750 668Q8728 668 8696 638Q8664 608 8633 560Q8602 512 8578 451Q8555 391 8549 330L8549 31Q8549 16 8548 0Q8548 -15 8542 -28Q8537 -40 8525 -49Q8514 -57 8492 -57Q8477 -57 8459 -54Q8442 -50 8427 -41Q8413 -31 8403 -14Q8394 4 8394 33ZM10370 262Q10356 211 10333 155Q10311 99 10276 52Q10241 5 10192 -26Q10143 -57 10077 -57Q10036 -57 10004 -42Q9973 -26 9950 0Q9928 26 9916 61Q9905 96 9905 135L9905 551Q9905 575 9904 596Q9903 617 9899 633Q9895 649 9887 658Q9880 668 9867 668Q9846 668 9816 638Q9786 608 9758 560Q9730 512 9708 451Q9686 391 9682 330L9682 31Q9682 16 9681 0Q9681 -15 9675 -28Q9670 -40 9658 -49Q9647 -57 9625 -57Q9610 -57 9592 -54Q9575 -50 9560 -41Q9546 -31 9536 -14Q9527 4 9527 33L9527 551Q9527 575 9525 596Q9524 617 9520 633Q9516 649 9508 658Q9501 668 9488 668Q9467 668 9437 638Q9408 608 9379 560Q9351 512 9329 451Q9308 391 9303 330L9303 31Q9303 16 9302 0Q9302 -15 9296 -28Q9291 -40 9279 -49Q9268 -57 9246 -57Q9231 -57 9213 -54Q9196 -50 9181 -41Q9167 -31 9157 -14Q9148 4 9148 33L9148 682Q9148 711 9143 724Q9139 737 9139 748Q9139 763 9155 772Q9171 782 9193 782Q9244 782 9273 755Q9303 729 9303 692L9303 606Q9323 648 9346 684Q9370 720 9397 746Q9424 773 9454 788Q9485 803 9520 803Q9566 803 9596 786Q9627 769 9645 741Q9664 713 9672 678Q9680 644 9682 610Q9701 651 9724 686Q9747 721 9774 747Q9801 773 9831 788Q9862 803 9897 803Q9947 803 9979 784Q10011 765 10029 735Q10047 705 10054 668Q10061 631 10061 596L10061 172Q10061 165 10062 149Q10063 134 10068 118Q10073 102 10083 90Q10094 78 10114 78Q10145 78 10167 100Q10190 122 10206 155Q10223 188 10234 226Q10245 265 10252 299Q10258 331 10271 345Q10285 360 10301 360Q10313 360 10325 352Q10338 345 10348 333Q10359 321 10365 306Q10372 291 10372 276Q10372 274 10372 271Q10372 268 10370 262ZM10731 596Q10731 539 10711 479Q10692 419 10653 365Q10615 312 10558 269Q10502 227 10428 205Q10438 179 10454 155Q10471 132 10494 115Q10517 98 10547 88Q10578 78 10618 78Q10678 78 10721 100Q10764 123 10793 160Q10823 197 10841 243Q10859 289 10868 336Q10875 370 10896 381Q10918 393 10940 387Q10963 381 10979 361Q10996 342 10993 315Q10989 284 10979 244Q10970 204 10951 163Q10932 122 10902 82Q10873 43 10830 12Q10787 -19 10729 -38Q10671 -57 10596 -57Q10526 -57 10460 -30Q10395 -2 10344 49Q10294 101 10263 176Q10233 252 10233 348Q10233 445 10260 528Q10287 612 10331 673Q10375 734 10431 768Q10487 803 10546 803Q10589 803 10623 788Q10658 773 10682 745Q10706 718 10718 680Q10731 642 10731 596ZM10401 354Q10401 345 10402 336Q10403 327 10403 317Q10441 335 10472 363Q10503 391 10525 427Q10547 463 10559 505Q10571 548 10571 594Q10571 628 10559 647Q10548 666 10528 666Q10503 666 10483 649Q10464 632 10449 604Q10435 577 10425 542Q10416 508 10410 473Q10404 438 10402 406Q10400 375 10401 354Z" style="" fill="#7adac0"></path></g></g><g transform="matrix(0.75,0,0,0.75,-153.48,916.5213)"><g transform="matrix(1.024,0,0,-1.024,0,0)"><path d="M855 697L953 697L751 0L649 0L487 561L319 0L218 -1L23 697L120 697L272 106L440 697L542 697L702 108L855 697ZM1553 295Q1553 269 1550 240L1112 240Q1117 159 1167 113Q1218 68 1290 68Q1349 68 1388 95Q1428 123 1444 169L1542 169Q1520 90 1454 40Q1388 -9 1290 -9Q1212 -9 1150 26Q1089 61 1054 125Q1019 190 1019 275Q1019 360 1053 424Q1087 488 1148 522Q1210 557 1290 557Q1368 557 1428 523Q1488 489 1520 429Q1553 370 1553 295ZM1459 314Q1459 366 1436 403Q1413 441 1373 460Q1334 480 1286 480Q1217 480 1168 436Q1120 392 1113 314L1459 314ZM1764 446Q1792 495 1846 526Q1900 557 1969 557Q2043 557 2102 522Q2161 487 2195 423Q2229 360 2229 276Q2229 193 2195 128Q2161 63 2101 27Q2042 -9 1969 -9Q1898 -9 1844 22Q1791 53 1764 101L1764 0L1673 0L1673 740L1764 740L1764 446ZM2136 276Q2136 338 2111 384Q2086 430 2043 454Q2001 478 1950 478Q1900 478 1857 453Q1815 429 1789 382Q1764 336 1764 275Q1764 213 1789 166Q1815 120 1857 95Q1900 71 1950 71Q2001 71 2043 95Q2086 120 2111 166Q2136 213 2136 276ZM2582 276Q2582 360 2616 423Q2650 487 2709 522Q2769 557 2843 557Q2907 557 2962 527Q3017 498 3046 450L3046 740L3138 740L3138 0L3046 0L3046 103Q3019 54 2966 22Q2913 -9 2842 -9Q2769 -9 2709 27Q2650 63 2616 128Q2582 193 2582 276ZM3046 275Q3046 337 3021 383Q2996 429 2953 453Q2911 478 2860 478Q2809 478 2767 454Q2725 430 2700 384Q2675 338 2675 276Q2675 213 2700 166Q2725 120 2767 95Q2809 71 2860 71Q2911 71 2953 95Q2996 120 3021 166Q3046 213 3046 275ZM3792 295Q3792 269 3789 240L3351 240Q3356 159 3406 113Q3457 68 3529 68Q3588 68 3627 95Q3667 123 3683 169L3781 169Q3759 90 3693 40Q3627 -9 3529 -9Q3451 -9 3389 26Q3328 61 3293 125Q3258 190 3258 275Q3258 360 3292 424Q3326 488 3387 522Q3449 557 3529 557Q3607 557 3667 523Q3727 489 3759 429Q3792 370 3792 295ZM3698 314Q3698 366 3675 403Q3652 441 3612 460Q3573 480 3525 480Q3456 480 3407 436Q3359 392 3352 314L3698 314ZM3945 548L4116 84L4286 548L4383 548L4168 0L4062 0L3847 548L3945 548ZM4973 295Q4973 269 4970 240L4532 240Q4537 159 4587 113Q4638 68 4710 68Q4769 68 4808 95Q4848 123 4864 169L4962 169Q4940 90 4874 40Q4808 -9 4710 -9Q4632 -9 4570 26Q4509 61 4474 125Q4439 190 4439 275Q4439 360 4473 424Q4507 488 4568 522Q4630 557 4710 557Q4788 557 4848 523Q4908 489 4940 429Q4973 370 4973 295ZM4879 314Q4879 366 4856 403Q4833 441 4793 460Q4754 480 4706 480Q4637 480 4588 436Q4540 392 4533 314L4879 314ZM5093 740L5184 740L5184 0L5093 0L5093 740ZM5578 -9Q5501 -9 5438 26Q5376 61 5340 125Q5305 190 5305 275Q5305 359 5341 423Q5378 488 5441 522Q5504 557 5582 557Q5660 557 5723 522Q5786 488 5822 424Q5859 360 5859 275Q5859 190 5821 125Q5784 61 5720 26Q5656 -9 5578 -9ZM5578 71Q5627 71 5670 94Q5713 117 5739 163Q5766 209 5766 275Q5766 341 5740 387Q5714 433 5672 455Q5630 478 5581 478Q5531 478 5489 455Q5448 433 5423 387Q5398 341 5398 275Q5398 208 5422 162Q5447 116 5488 93Q5529 71 5578 71ZM6070 447Q6097 494 6150 525Q6204 557 6275 557Q6348 557 6407 522Q6467 487 6501 423Q6535 360 6535 276Q6535 193 6501 128Q6467 63 6407 27Q6348 -9 6275 -9Q6205 -9 6151 22Q6098 54 6070 101L6070 -260L5979 -260L5979 548L6070 548L6070 447ZM6442 276Q6442 338 6417 384Q6392 430 6349 454Q6307 478 6256 478Q6206 478 6163 453Q6121 429 6095 382Q6070 336 6070 275Q6070 213 6095 166Q6121 120 6163 95Q6206 71 6256 71Q6307 71 6349 95Q6392 120 6417 166Q6442 213 6442 276ZM7155 295Q7155 269 7152 240L6714 240Q6719 159 6769 113Q6820 68 6892 68Q6951 68 6990 95Q7030 123 7046 169L7144 169Q7122 90 7056 40Q6990 -9 6892 -9Q6814 -9 6752 26Q6691 61 6656 125Q6621 190 6621 275Q6621 360 6655 424Q6689 488 6750 522Q6812 557 6892 557Q6970 557 7030 523Q7090 489 7122 429Q7155 370 7155 295ZM7061 314Q7061 366 7038 403Q7015 441 6975 460Q6936 480 6888 480Q6819 480 6770 436Q6722 392 6715 314L7061 314ZM7366 459Q7390 506 7434 532Q7479 558 7543 558L7543 464L7519 464Q7366 464 7366 298L7366 0L7275 0L7275 548L7366 548L7366 459Z" style="" fill="#7adac0"></path></g></g></g></svg>