<svg version="1.1" xmlns="http://www.w3.org/2000/svg" viewBox="0 0 250 250"><desc>Created with Snap</desc><defs></defs><g transform="matrix(0.0207,0,0,0.0207,5.0951,122.0182)"><g transform="matrix(26.1772,0,0,26.1772,8933.282,-766)"><g><path d="M99.26,66.652c0.156-0.647,0.063-1.35-0.335-1.945l-7.79-11.684V2.484c0-1.373-1.11-2.484-2.483-2.484H10.69   C9.319,0,8.208,1.111,8.208,2.484v50.539L0.417,64.707c-0.398,0.596-0.489,1.298-0.336,1.945C0.058,66.789,0,66.913,0,67.056   c0,1.373,1.112,2.483,2.484,2.483h94.375c1.372,0,2.483-1.11,2.483-2.483C99.343,66.913,99.285,66.789,99.26,66.652z M12.02,56.26   h75.302l5.547,8.312H6.476L12.02,56.26z M13.174,4.967h72.994v46.324H13.174V4.967z" style="" fill="#000000"></path><path d="M49.674,7.155c-5.149,0-9.862,1.872-13.515,4.96c-0.322,0.157-0.577,0.405-0.773,0.706   c-4.104,3.827-6.686,9.267-6.686,15.311c0,11.564,9.408,20.972,20.974,20.972c11.564,0,20.973-9.408,20.973-20.972   C70.646,16.565,61.238,7.155,49.674,7.155z M49.674,11.149c1.538,0,3.021,0.226,4.438,0.605c-0.051,0.182-0.109,0.365-0.109,0.559   c0,1.515-1.232,2.745-2.748,2.745c-1.105,0-1.998,0.896-1.998,2.003c0,1.508-1.235,2.743-2.743,2.743   c-3.728,0-6.796-2.159-7.371-4.969C42.037,12.536,45.692,11.149,49.674,11.149z M41.534,38.35c-0.451-0.364-0.929-1.01-0.946-1.208   c0,0,0.043-0.083,0.226-0.219c0.504-0.38,0.8-0.969,0.8-1.598v-4.841c0.022-0.051,0.051-0.095,0.075-0.139   c0.085,0.08,0.18,0.192,0.295,0.333c0.316,0.391,0.765,0.653,1.257,0.725c0.611,0.095,3.022,0.735,3.718,2.14   c0.41,0.824,0.214,1.984-0.618,3.504c-0.245,0.492-1.523,2.488-2.801,2.488c-0.67,0-1.378-0.567-1.855-1.043   C41.641,38.445,41.58,38.393,41.534,38.35z M49.674,45.11c-2.702,0-5.249-0.653-7.519-1.78c0.456,0.125,0.917,0.2,1.385,0.2   c3.915,0,6.136-4.215,6.34-4.632c1.455-2.666,1.679-5.062,0.66-7.126c-1.361-2.747-4.465-3.805-5.938-4.161   c-0.949-0.982-1.965-1.48-3.025-1.48c-2.027,0-3.342,1.793-3.856,3.321c-0.068,0.206-0.103,0.419-0.103,0.633v4.375   c-0.8,0.914-0.999,1.867-1.014,2.573c-0.024,1.358,0.655,2.516,1.305,3.315c-3.208-3.092-5.217-7.422-5.217-12.216   c0-3.798,1.268-7.293,3.38-10.125c1.813,3.415,5.804,5.793,10.439,5.793c3.106,0,5.709-2.126,6.482-4.999   c2.563-0.689,4.512-2.84,4.904-5.515c2.262,1.26,4.198,3.019,5.681,5.132c-4.554,0.892-8,4.906-8,9.713   c0,3.882,2.064,7.033,4.934,7.991c0.311,1.444,1.012,2.566,1.972,3.112C59.37,42.825,54.787,45.11,49.674,45.11z M65.564,22.204   c0.688,1.848,1.087,3.841,1.087,5.928c0,2.777-0.688,5.396-1.875,7.715c-0.08-0.039-0.149-0.095-0.237-0.124   c-0.094-0.221-0.217-0.646-0.217-1.266c0-1.104-0.896-1.999-1.998-1.999c-1.465,0-2.75-2.025-2.75-4.327   c0-3.26,2.651-5.911,5.915-5.911C65.515,22.221,65.536,22.206,65.564,22.204z" style="" fill="#000000"></path></g><desc>Created with Snap</desc><defs></defs></g><g><g transform="matrix(1,0,0,-1,0,0)"><path d="M903 47Q905 42 900 42Q896 42 893 42Q896 37 894 34Q893 31 890 28Q888 26 885 23Q883 20 883 16Q867 18 864 15Q861 13 853 1Q843 -1 836 -5Q828 -4 824 -1Q821 3 810 1Q812 12 801 12Q802 19 801 25Q801 31 793 34Q799 40 795 47Q791 55 792 63Q792 65 793 67Q794 70 794 73Q790 81 792 83Q795 85 795 88Q799 108 799 123Q799 139 799 153Q799 157 797 158Q795 159 792 161Q792 166 795 167Q799 168 800 172Q801 179 798 185Q796 191 797 198Q800 212 797 217Q795 223 796 228Q796 232 797 235Q799 238 799 241Q799 245 798 248Q797 251 797 254Q797 259 798 264Q799 269 799 274Q799 279 798 283Q797 288 794 291Q799 300 797 317Q795 334 797 345Q800 357 797 360Q795 363 796 367Q796 371 797 374Q799 377 799 381Q799 386 796 390Q794 394 795 399Q799 420 794 431Q790 442 795 454Q795 458 793 460Q791 462 789 465Q790 475 787 477Q785 480 783 488Q780 503 782 518Q785 533 781 547Q779 552 776 555Q773 558 775 564Q770 562 766 558Q762 555 757 553Q757 545 754 540Q752 536 754 527Q751 521 744 517L738 497Q737 495 734 494Q732 493 730 491L725 478Q724 475 724 472Q725 470 725 468Q725 465 722 460Q720 455 716 449Q712 444 708 439Q705 434 704 432Q698 422 695 420Q692 419 691 417Q689 415 689 411Q689 408 688 406Q686 401 680 392Q675 384 670 382Q670 378 669 373Q668 369 662 369Q664 358 658 351Q652 344 656 337Q651 337 648 334Q646 332 644 329Q642 326 640 323Q638 320 634 319Q636 313 634 305Q633 298 625 296Q624 291 623 288Q622 285 624 280Q617 278 617 270Q617 263 609 257Q611 247 608 243Q606 239 605 231Q599 229 590 216Q582 204 580 198Q571 194 571 191Q571 188 570 185Q568 183 566 181Q564 179 562 177Q559 170 558 161Q558 153 558 146Q554 146 552 143Q551 140 548 138Q548 133 547 125Q547 117 542 114Q546 106 541 95Q536 85 538 77Q530 72 522 64Q515 57 506 52Q498 47 489 46Q480 45 470 53Q467 54 465 52Q463 51 460 51Q455 51 449 53Q444 55 439 53Q438 63 433 71Q428 80 429 91Q429 95 431 98Q434 101 434 105Q435 113 432 120Q430 128 424 133Q423 141 422 150Q421 159 414 164Q415 176 410 185Q405 194 397 202Q397 204 394 211Q392 218 388 225Q385 233 381 239Q378 246 377 248Q375 252 373 257Q372 262 366 261Q367 275 359 277Q351 280 346 287Q340 295 336 304Q332 314 324 322Q323 331 317 336Q312 341 304 345Q306 353 303 355Q300 358 300 363Q297 368 291 371Q286 375 281 378Q279 390 270 398Q261 407 257 419Q256 421 248 427Q241 434 239 434Q241 444 237 448Q233 452 233 460Q229 463 227 466Q226 470 225 473Q224 477 221 480Q219 483 213 484Q211 492 209 498Q208 504 197 506Q197 512 194 515Q192 519 188 522Q185 525 182 528Q179 532 179 537Q182 524 179 517Q176 511 176 505Q176 500 179 499Q183 499 183 494Q183 489 180 484Q177 479 177 474Q179 460 176 446Q174 432 179 428Q179 423 176 421Q173 419 171 415Q173 411 172 407Q172 404 173 400Q174 396 175 393Q177 390 177 387Q177 376 174 362Q171 348 179 339Q175 333 178 327Q181 321 181 315Q180 312 179 309Q178 306 178 302Q177 294 177 285Q178 276 177 268Q177 263 176 258Q175 254 175 249Q175 244 179 243Q183 242 181 237Q168 224 172 214Q177 205 172 196L167 185Q172 174 170 163Q168 153 167 142Q167 136 168 130Q170 124 169 118Q167 105 169 100Q172 96 172 91Q171 85 168 77Q165 69 170 64Q165 58 163 50Q161 43 157 36Q163 27 157 19Q152 11 146 5Q135 5 131 5Q127 6 126 -8Q121 -9 115 -13Q110 -16 104 -16Q96 -16 91 -9Q87 -2 76 -3Q77 0 76 1Q76 2 74 2Q72 3 70 5Q68 7 68 13Q58 30 62 36Q67 43 67 50Q67 54 66 57Q65 61 70 64Q72 69 70 71Q69 74 69 79Q76 89 75 93Q74 98 74 101Q77 109 75 111Q73 113 73 116Q73 130 79 144Q85 158 85 172Q85 177 83 180Q82 183 81 187Q79 200 80 203Q82 207 82 211Q83 219 83 226Q83 234 83 242Q85 268 86 291Q88 315 79 341Q84 346 85 347Q87 348 88 355Q88 363 86 372Q84 381 89 389Q89 394 86 397Q84 400 83 404Q84 416 89 430Q87 435 86 439Q86 444 82 447Q89 481 91 517Q92 534 91 551Q90 569 92 586Q92 589 94 594Q97 599 100 601Q94 608 95 611Q97 615 96 623Q97 633 95 636Q94 639 93 643Q92 647 92 651Q93 656 96 662Q93 672 92 676Q92 680 93 681Q95 683 97 684Q99 686 100 692Q109 687 117 691Q126 696 136 696Q145 696 153 693Q161 690 171 692Q172 689 181 682Q191 675 194 673Q196 662 204 652Q213 642 218 634Q220 631 222 630Q225 629 227 627Q227 621 227 617Q228 613 231 608Q237 599 239 599Q241 599 243 597Q245 594 244 592Q244 590 249 586Q254 582 259 573Q265 565 269 560Q273 555 274 554Q276 554 276 547Q276 543 279 542Q283 541 285 538Q287 531 290 529Q294 527 296 523Q298 521 297 517Q296 514 298 512Q305 506 304 505Q303 504 303 502Q302 499 307 494Q313 489 316 488Q317 485 317 481Q318 478 320 475Q324 470 325 472Q327 475 327 464Q327 463 330 459Q334 455 338 450Q342 445 346 441Q350 437 351 436Q350 425 358 420Q367 415 374 408Q378 404 379 399Q381 395 387 393Q394 374 397 358Q406 352 411 342Q416 333 427 328Q426 321 430 314Q435 308 430 302Q432 297 436 296Q441 296 444 293Q446 291 448 286Q450 282 453 278Q456 275 462 267Q466 262 467 255Q469 249 475 244Q472 238 474 232Q477 227 481 222Q488 220 496 229Q504 239 504 246Q515 248 519 256Q523 265 524 276Q544 291 545 311Q557 332 564 348Q571 364 582 378Q580 386 584 389Q589 392 588 400Q598 402 601 410Q604 418 612 421Q610 426 612 430Q615 435 618 439L619 449Q617 455 622 454Q627 453 629 456Q636 465 638 476Q641 487 642 498Q643 503 645 503Q648 504 650 508Q654 519 658 528Q663 537 671 545Q673 550 671 552Q669 554 669 558Q670 562 673 564Q676 566 673 573Q678 580 683 585Q689 590 691 599Q699 601 700 608Q702 615 708 618Q707 624 707 627Q708 631 709 636Q717 644 716 647Q715 651 717 655Q722 658 725 661Q728 665 734 666Q735 671 734 672Q733 674 735 679Q743 681 746 686Q750 692 760 692Q762 694 762 698Q763 702 763 705Q768 707 772 707Q777 707 782 707Q794 709 804 704Q815 699 829 699Q830 691 832 685Q835 679 837 673Q841 658 842 649Q843 640 854 627L853 616Q856 613 856 609Q857 605 862 603Q857 595 860 588Q864 581 866 573L860 564Q862 559 862 552Q863 545 869 543Q862 535 866 528Q870 522 870 514Q869 512 868 509Q867 507 867 504Q867 502 869 497Q871 492 871 487Q874 468 874 456Q875 444 875 432Q875 427 878 425Q881 423 884 421Q885 418 882 416Q880 415 881 410Q883 408 883 405Q884 402 888 402Q883 385 887 370Q891 356 890 341Q889 338 887 336Q885 335 884 332Q884 329 885 326Q886 324 886 322Q886 319 884 316Q883 314 883 312Q883 307 888 305Q893 303 892 300Q892 298 888 293Q884 288 892 287Q887 284 888 278Q890 272 886 270Q893 248 884 231Q886 226 887 221Q889 216 895 216Q892 212 889 209Q886 206 883 202Q881 197 885 196Q889 196 889 192Q889 181 887 179Q886 178 886 176Q886 172 887 168Q889 164 890 160Q891 157 890 153Q889 149 884 146Q883 140 886 134Q889 129 888 122Q888 119 887 115Q887 112 887 109Q887 107 886 101Q886 95 886 88Q886 82 886 76Q887 71 888 70Q890 65 897 58Q905 52 903 47ZM1449 487Q1443 482 1436 472Q1430 462 1424 460Q1422 459 1419 459Q1416 460 1413 460Q1408 460 1406 458Q1404 456 1400 455Q1393 459 1386 460Q1379 461 1372 465Q1366 465 1363 462Q1360 459 1355 459Q1350 459 1345 461Q1341 463 1337 458Q1318 464 1298 466Q1279 469 1260 474Q1252 470 1244 470Q1237 471 1229 469Q1226 468 1223 466Q1220 465 1217 465Q1213 465 1210 466Q1207 467 1203 467Q1197 467 1191 464Q1185 462 1179 462Q1174 462 1171 464Q1168 467 1163 462Q1160 467 1156 464Q1153 462 1150 460Q1134 460 1128 461Q1123 463 1116 462Q1116 455 1116 442Q1116 429 1116 415Q1117 402 1117 390Q1117 379 1116 375Q1119 368 1126 368Q1134 368 1139 368Q1153 362 1167 361Q1182 361 1196 361Q1201 361 1204 362Q1208 363 1213 363Q1217 363 1225 361Q1234 360 1242 359Q1251 359 1257 361Q1264 363 1264 371Q1275 373 1279 367Q1284 361 1289 361Q1294 361 1296 365Q1298 369 1302 371Q1306 371 1307 367Q1308 364 1315 364Q1321 364 1328 368Q1336 373 1344 363Q1351 361 1354 363Q1357 365 1363 366Q1370 354 1379 343Q1388 333 1393 320Q1390 320 1386 317Q1382 314 1379 309Q1376 305 1374 301Q1372 297 1373 294Q1367 289 1360 284Q1354 280 1346 280Q1338 280 1336 283Q1335 286 1330 286Q1325 286 1321 284Q1318 283 1314 283Q1309 283 1303 284Q1298 286 1292 286Q1285 286 1278 283Q1272 281 1265 281Q1260 281 1256 283Q1253 285 1249 286Q1242 287 1236 287Q1230 288 1223 288Q1218 288 1214 285Q1211 283 1206 283Q1201 283 1195 284Q1190 286 1185 286Q1181 286 1178 285Q1175 284 1172 284Q1154 282 1143 280Q1132 279 1121 276Q1122 265 1122 254Q1123 243 1128 233Q1128 230 1125 229Q1123 228 1123 223Q1131 213 1132 201Q1134 190 1133 178Q1132 166 1131 154Q1130 142 1135 130Q1132 122 1130 115Q1129 109 1130 101Q1137 91 1148 91Q1153 91 1157 91Q1161 92 1166 92Q1170 92 1173 91Q1176 90 1180 90Q1192 90 1204 91Q1216 93 1228 93Q1232 93 1235 92Q1239 92 1243 92Q1250 92 1256 93Q1263 95 1270 95Q1275 95 1279 93Q1283 92 1288 92Q1297 92 1305 95Q1314 98 1323 98Q1325 98 1328 97Q1331 97 1333 97Q1338 97 1340 101Q1342 106 1344 107Q1349 108 1354 109Q1359 110 1364 111Q1368 112 1370 108Q1373 105 1374 102Q1383 101 1388 96Q1394 91 1402 90Q1404 85 1407 81Q1410 78 1415 78Q1413 70 1417 61Q1411 59 1406 54Q1402 49 1397 47Q1398 41 1399 35Q1400 30 1399 23Q1397 21 1393 21Q1390 22 1387 22Q1380 22 1378 17Q1377 13 1372 13Q1369 15 1364 15Q1359 15 1354 15Q1349 15 1344 15Q1340 15 1337 17Q1331 17 1327 14Q1323 12 1319 8Q1309 12 1300 9Q1292 6 1284 1Q1280 5 1276 5Q1273 5 1268 4Q1268 7 1265 9Q1263 12 1262 15Q1245 12 1228 13Q1211 15 1194 10Q1185 15 1172 15Q1160 15 1151 8Q1143 12 1134 8Q1125 5 1116 5Q1103 8 1100 5Q1098 3 1095 3Q1090 3 1085 3Q1081 3 1076 5Q1071 12 1067 12Q1064 12 1060 14Q1059 22 1051 29Q1043 36 1038 41Q1041 43 1044 44Q1048 46 1048 50Q1041 60 1040 64Q1040 68 1040 72Q1041 77 1040 81Q1040 86 1036 89Q1046 92 1046 96Q1046 110 1042 122Q1038 134 1038 148Q1046 156 1045 159Q1045 163 1045 173Q1045 184 1046 193Q1048 203 1039 211Q1041 221 1039 230Q1038 240 1038 250Q1038 262 1040 273Q1043 285 1043 297Q1043 304 1040 307Q1038 310 1038 313Q1041 326 1039 329Q1037 333 1036 338Q1034 353 1035 369Q1037 385 1037 401Q1037 412 1033 426Q1030 440 1032 446Q1030 449 1029 453Q1028 457 1024 459Q1030 467 1023 473Q1017 480 1017 488Q1017 497 1020 503Q1024 509 1020 519Q1029 523 1040 526Q1045 531 1046 534Q1047 538 1057 538Q1074 538 1090 535Q1106 533 1123 530Q1127 531 1130 531Q1133 532 1136 534Q1144 530 1151 530Q1158 531 1164 533Q1171 535 1177 537Q1184 540 1191 540Q1199 540 1206 538Q1213 537 1221 537Q1247 537 1273 540Q1300 544 1326 542Q1335 537 1333 533Q1337 535 1340 536Q1344 537 1349 537Q1361 537 1376 536Q1392 536 1403 533Q1409 527 1413 526Q1418 524 1422 522Q1426 521 1431 519Q1435 517 1438 515Q1442 514 1446 512Q1453 502 1448 497Q1444 493 1449 487ZM1982 7Q1976 8 1970 9Q1964 10 1958 10Q1954 4 1949 1Q1944 -1 1938 -3Q1932 0 1925 1Q1918 3 1918 12Q1907 13 1898 25Q1890 37 1888 47Q1886 49 1881 50Q1876 51 1874 53Q1867 57 1863 57Q1858 62 1855 69Q1852 76 1848 81Q1846 83 1844 84Q1842 86 1840 88Q1835 96 1835 102Q1836 109 1827 114Q1824 123 1826 130Q1821 136 1816 136Q1812 137 1810 139Q1804 147 1800 157Q1797 167 1790 175Q1787 178 1783 179Q1779 180 1778 185Q1777 192 1771 197Q1765 203 1757 210Q1750 217 1743 222Q1737 228 1736 229Q1733 227 1728 223Q1723 220 1718 215Q1714 211 1712 206Q1710 202 1713 198Q1705 193 1700 186Q1695 180 1687 177Q1683 172 1683 168Q1684 165 1685 160Q1671 158 1661 149Q1651 140 1640 133Q1644 119 1642 114Q1641 110 1641 105Q1641 97 1642 90Q1644 83 1644 76Q1644 66 1638 60Q1642 55 1641 48Q1641 42 1646 39Q1644 35 1642 33Q1640 31 1639 27Q1633 25 1628 22Q1624 20 1618 20Q1612 14 1605 9Q1599 5 1592 1Q1586 6 1579 7Q1572 8 1564 8Q1563 10 1554 19Q1546 29 1544 30Q1545 42 1542 53Q1539 65 1539 77Q1539 85 1542 92Q1546 100 1546 109Q1546 118 1545 126Q1544 135 1544 144Q1544 148 1545 151Q1547 155 1547 159Q1547 164 1544 168Q1542 172 1542 177Q1542 182 1543 186Q1545 190 1545 195Q1545 202 1539 207Q1540 212 1542 215Q1545 219 1547 224Q1540 244 1544 260Q1549 276 1549 296Q1549 300 1547 302Q1546 305 1544 309Q1549 316 1546 320Q1544 325 1542 330Q1545 333 1544 341Q1544 349 1544 353Q1546 358 1544 360Q1543 362 1542 367Q1546 372 1542 384Q1539 397 1539 405Q1539 409 1539 416Q1540 424 1540 432Q1540 440 1540 447Q1540 454 1539 458Q1538 461 1536 464Q1534 467 1534 471Q1534 477 1536 482Q1538 488 1537 493Q1542 497 1544 497Q1546 498 1551 497Q1553 503 1557 510Q1562 517 1570 517Q1574 517 1577 514Q1581 511 1584 509Q1587 507 1589 507Q1592 507 1595 512Q1600 509 1603 505Q1607 501 1614 500Q1616 492 1620 485Q1624 479 1624 472Q1624 467 1622 462Q1621 458 1621 453Q1621 450 1622 447Q1624 444 1624 440Q1624 434 1622 428Q1621 422 1621 416Q1621 409 1623 405Q1626 402 1626 397Q1627 389 1626 387Q1626 385 1631 378Q1632 374 1630 371Q1629 368 1629 364Q1629 359 1631 356Q1634 353 1634 350Q1634 347 1632 344Q1631 341 1631 338Q1631 313 1634 291Q1635 285 1637 279Q1639 274 1639 268Q1639 263 1637 257Q1636 251 1636 246Q1656 256 1668 272Q1670 280 1679 285Q1688 291 1692 299L1712 311Q1715 312 1718 316Q1721 321 1724 325Q1728 330 1731 333Q1735 336 1739 335Q1745 340 1752 347Q1760 355 1760 364Q1779 373 1794 392Q1809 412 1828 425Q1833 428 1832 432Q1832 436 1834 440Q1843 445 1851 455Q1860 465 1860 476Q1862 479 1865 478Q1868 478 1872 483Q1883 500 1896 505Q1910 511 1924 522Q1933 518 1941 513Q1950 509 1960 508Q1962 503 1963 496Q1965 490 1967 484Q1963 478 1965 473Q1959 467 1963 462L1959 452Q1956 449 1952 446Q1948 443 1950 438Q1946 436 1943 437Q1940 438 1936 435Q1929 430 1925 423Q1921 417 1916 410Q1912 404 1906 398Q1900 393 1891 392Q1887 385 1883 374Q1880 364 1876 359Q1872 357 1868 357Q1865 358 1861 355Q1851 348 1842 338Q1834 328 1827 319Q1819 313 1817 306Q1815 299 1810 294Q1816 288 1820 285Q1824 282 1827 279Q1831 276 1834 273Q1837 270 1837 268Q1839 257 1847 245Q1855 233 1864 222Q1873 211 1880 201Q1888 192 1888 187Q1888 185 1886 182Q1885 179 1884 175Q1884 172 1886 169Q1888 167 1895 167Q1905 156 1911 141Q1918 126 1930 119Q1932 116 1931 112Q1931 108 1933 105Q1944 104 1950 95Q1957 86 1967 84Q1971 81 1973 78Q1975 75 1977 70Q1985 65 1991 58Q1997 52 2004 46Q2007 33 1998 23Q1990 14 1982 7ZM2668 71Q2667 66 2659 63Q2651 61 2646 56Q2646 50 2643 47Q2640 45 2641 37Q2636 35 2631 28Q2626 21 2621 21Q2614 21 2609 24Q2605 28 2596 26Q2588 41 2574 47Q2567 60 2560 72Q2553 84 2547 97Q2532 110 2523 114Q2514 119 2506 117Q2499 116 2490 110Q2482 104 2467 95Q2457 95 2439 95Q2422 95 2414 99Q2411 100 2408 101Q2406 103 2403 103Q2399 103 2395 101Q2392 100 2388 100Q2384 100 2381 101Q2378 102 2374 103Q2370 103 2367 102Q2365 102 2362 103Q2356 100 2353 97Q2351 95 2347 95Q2333 100 2317 102Q2302 104 2288 112Q2280 114 2279 109Q2278 105 2273 105Q2262 106 2253 104Q2244 103 2233 103Q2228 103 2222 104Q2217 105 2212 105Q2206 105 2201 102Q2196 100 2191 100Q2187 100 2184 101Q2181 103 2176 103Q2171 103 2167 100Q2164 98 2160 98Q2155 98 2151 98Q2147 99 2143 99Q2134 99 2130 95Q2126 92 2124 86Q2123 81 2122 75Q2121 70 2116 66Q2118 51 2115 42Q2112 33 2103 21Q2090 20 2078 17Q2066 15 2053 15Q2045 15 2042 20Q2039 25 2034 30Q2027 36 2023 42Q2020 48 2015 56Q2016 60 2019 62Q2023 65 2026 67Q2024 73 2025 77Q2027 81 2030 85Q2033 89 2035 93Q2038 98 2038 103Q2038 109 2038 111Q2039 113 2040 114Q2041 115 2042 116Q2043 117 2045 121Q2047 125 2046 128Q2045 132 2047 136Q2051 145 2056 152Q2062 160 2067 168Q2069 173 2070 177Q2072 181 2074 185Q2077 193 2085 200L2085 213Q2088 217 2090 220Q2092 223 2097 225Q2096 237 2103 245Q2110 254 2112 265Q2126 273 2135 287Q2145 302 2142 319Q2150 322 2154 330Q2158 338 2166 341Q2166 349 2168 355Q2171 361 2171 369Q2180 374 2183 382Q2187 391 2191 399Q2192 401 2195 406Q2198 412 2201 418Q2204 424 2206 428Q2209 433 2209 435Q2227 465 2230 491Q2236 497 2238 499Q2241 502 2242 504Q2243 507 2243 510Q2243 514 2245 521Q2248 520 2250 523Q2253 527 2256 532Q2260 537 2265 541Q2271 546 2280 546Q2290 546 2299 544Q2308 542 2318 541Q2323 535 2328 530Q2334 525 2339 518L2339 506Q2347 496 2354 485Q2362 475 2374 470Q2373 459 2378 457Q2384 456 2391 451Q2390 442 2392 437Q2395 433 2398 427Q2402 422 2405 417Q2408 413 2409 411Q2414 402 2421 402Q2420 397 2424 395Q2428 394 2426 387Q2435 378 2448 373Q2448 366 2453 360Q2458 355 2463 352Q2464 347 2467 345Q2470 343 2473 341Q2478 338 2480 333Q2483 328 2488 326Q2489 317 2498 305Q2507 294 2517 282Q2527 271 2535 261Q2543 252 2542 247Q2550 242 2557 236Q2565 231 2575 227Q2575 219 2574 215Q2574 212 2575 209Q2576 207 2579 205Q2582 203 2589 198Q2588 193 2593 186Q2595 182 2596 177Q2597 173 2600 168Q2605 160 2613 155Q2622 151 2629 145Q2634 134 2637 123Q2640 112 2644 101Q2651 94 2659 91Q2660 86 2661 80Q2663 74 2668 71ZM2436 259Q2430 260 2427 263Q2424 267 2419 268Q2420 281 2414 282Q2408 283 2401 290Q2401 295 2397 296Q2393 298 2391 302Q2387 313 2386 314Q2385 316 2380 319Q2376 321 2376 324Q2376 327 2368 331Q2364 333 2360 334Q2356 335 2354 339Q2348 350 2339 362Q2331 375 2329 389Q2319 395 2314 403Q2310 411 2296 413Q2288 403 2285 391Q2282 380 2272 372L2272 359Q2267 353 2261 346Q2256 339 2257 331Q2249 329 2249 323Q2249 317 2245 312Q2243 309 2240 308Q2238 307 2238 302Q2233 292 2231 286Q2229 280 2226 275Q2215 270 2217 266Q2219 262 2216 255Q2212 248 2206 245Q2201 243 2203 232Q2192 222 2184 209Q2177 197 2179 182Q2189 183 2199 182Q2209 181 2219 181Q2230 181 2239 185Q2249 189 2260 189Q2273 189 2286 182Q2299 176 2311 182Q2316 180 2319 178Q2322 176 2327 174Q2360 168 2394 179Q2404 175 2409 174Q2412 176 2420 177Q2428 178 2436 179Q2445 180 2451 182Q2458 184 2457 187Q2464 191 2468 191Q2473 191 2473 202Q2473 208 2468 215Q2463 222 2456 229Q2449 237 2443 244Q2437 252 2436 259ZM3183 247Q3182 241 3180 235Q3178 230 3178 224Q3177 215 3178 206Q3180 198 3176 189Q3170 186 3168 181Q3167 176 3164 173Q3162 170 3159 166Q3156 163 3154 156Q3148 155 3146 153Q3144 151 3143 149Q3143 147 3142 144Q3141 142 3138 141Q3134 139 3129 136Q3125 134 3120 135Q3116 133 3115 129Q3115 126 3114 122Q3106 121 3098 116Q3090 111 3085 105Q3078 103 3070 101Q3062 99 3059 91Q3055 92 3047 88Q3039 85 3035 82Q3033 80 3031 78Q3029 76 3027 74Q3021 71 3015 67Q3009 64 3003 60Q2998 60 2997 56Q2997 53 2996 49Q2991 51 2981 51Q2974 44 2965 41Q2956 38 2948 33Q2946 33 2943 34Q2941 36 2938 36Q2933 36 2931 34Q2930 32 2927 31Q2919 29 2910 29Q2901 30 2896 23Q2894 22 2891 24Q2888 26 2886 26Q2882 26 2880 23Q2878 21 2875 21Q2868 19 2861 20Q2855 21 2848 21Q2838 21 2829 17Q2820 13 2809 13Q2797 13 2787 15Q2778 18 2766 11Q2759 13 2753 15Q2747 18 2741 20Q2739 30 2734 37Q2729 45 2724 53Q2726 65 2726 76Q2726 88 2726 99Q2726 102 2727 105Q2728 109 2728 112Q2730 123 2728 130Q2726 137 2726 144Q2726 158 2730 165Q2734 173 2734 181Q2734 187 2732 192Q2731 198 2731 204Q2731 215 2732 226Q2734 237 2726 247Q2730 263 2729 272Q2728 282 2726 289Q2724 296 2721 301Q2719 307 2719 315Q2719 325 2720 329Q2722 334 2714 344Q2716 356 2713 358Q2711 361 2711 364Q2714 378 2711 381Q2709 385 2709 388Q2709 391 2710 394Q2711 397 2711 400Q2711 404 2708 407Q2706 411 2706 415Q2706 423 2708 426Q2711 430 2706 440Q2709 454 2706 458Q2704 462 2704 467Q2704 477 2706 486Q2708 496 2709 506Q2713 511 2718 514Q2724 518 2728 524Q2739 524 2745 526Q2752 528 2764 524Q2770 527 2776 530Q2782 534 2789 536Q2794 536 2797 532Q2800 529 2805 527Q2807 525 2810 526Q2813 527 2816 527Q2818 527 2820 524Q2822 521 2827 521Q2830 521 2832 522Q2835 524 2838 524Q2845 519 2846 520Q2848 522 2850 522Q2855 522 2862 516Q2870 510 2881 516Q2892 513 2897 511Q2903 509 2915 509Q2919 509 2921 506Q2924 504 2926 502Q2942 504 2953 496Q2965 489 2978 492Q2987 482 3001 481Q3015 481 3023 472Q3028 470 3030 471Q3032 473 3037 474Q3039 470 3042 469Q3045 469 3049 468Q3061 466 3071 459Q3081 452 3093 450Q3093 446 3095 444Q3098 443 3100 442Q3102 441 3103 438Q3104 436 3103 430Q3112 429 3115 426Q3119 423 3121 419Q3124 415 3126 410Q3128 406 3133 402Q3137 383 3144 374Q3152 366 3153 357Q3157 352 3160 347Q3163 342 3168 337Q3167 317 3175 303Q3183 289 3183 272Q3183 262 3181 260Q3179 258 3183 247ZM3099 284Q3096 289 3092 293Q3088 298 3086 303Q3088 308 3087 312Q3086 317 3086 322Q3078 333 3073 346Q3069 359 3061 369Q3059 372 3054 372Q3049 373 3049 376Q3046 381 3044 386Q3042 391 3040 396Q3026 393 3022 397Q3018 402 3007 408Q2993 409 2978 412Q2963 416 2953 428L2939 428Q2934 436 2924 437Q2914 439 2906 443L2890 445Q2885 445 2882 447Q2880 450 2877 450Q2873 450 2870 448Q2867 447 2864 447Q2862 447 2858 449Q2855 451 2853 452Q2845 455 2838 454Q2831 453 2823 460Q2813 453 2806 451Q2800 449 2793 447Q2794 426 2794 405Q2795 385 2793 365Q2797 360 2799 354Q2801 348 2803 343Q2804 323 2809 303Q2814 284 2815 264Q2816 258 2815 252Q2815 246 2815 240Q2815 232 2817 225Q2820 219 2820 212Q2820 198 2817 185Q2815 172 2815 158Q2815 153 2817 150Q2820 148 2820 145Q2820 128 2815 117Q2822 108 2825 97Q2829 86 2840 80Q2853 81 2861 85Q2870 90 2885 85Q2890 87 2895 90Q2900 93 2906 95Q2914 98 2923 99Q2933 100 2941 105Q2944 107 2946 110Q2949 113 2951 115Q2959 124 2970 128Q2981 132 2992 132Q2991 138 3002 143Q3013 148 3018 150Q3023 158 3032 163Q3041 168 3051 170Q3054 181 3057 184Q3061 188 3065 189Q3069 190 3072 189Q3076 189 3078 193Q3083 201 3084 205Q3085 210 3095 213Q3090 220 3093 223Q3097 227 3099 233Q3101 244 3100 258Q3099 273 3099 284ZM4164 -1Q4157 6 4154 9Q4151 13 4150 18Q4134 25 4128 39Q4123 53 4112 64L4112 77Q4107 82 4102 87Q4098 92 4093 96Q4097 108 4091 117Q4085 127 4083 138Q4078 142 4074 146Q4071 151 4069 157Q4062 158 4053 157Q4044 157 4035 156Q4026 155 4017 155Q4009 156 4004 161Q3996 162 3987 163Q3979 164 3971 166Q3949 161 3930 163Q3911 165 3897 159Q3893 161 3888 161Q3883 162 3880 166Q3870 160 3864 163Q3859 166 3849 166Q3845 166 3841 164Q3837 163 3833 161Q3825 164 3816 166Q3808 168 3799 168Q3794 168 3790 166Q3787 164 3783 164Q3778 164 3773 165Q3769 167 3764 164Q3753 166 3748 162Q3743 159 3738 164Q3731 159 3723 158Q3715 157 3709 153Q3705 144 3704 144Q3703 144 3702 142Q3697 137 3696 130Q3696 124 3688 122Q3686 111 3681 103Q3676 95 3671 86Q3672 82 3672 79Q3673 76 3673 72Q3668 62 3670 60Q3672 59 3671 57Q3664 52 3664 48Q3664 45 3659 47Q3659 27 3648 18Q3637 10 3626 -3Q3618 -3 3611 -5Q3605 -6 3597 -8Q3591 -4 3583 -2Q3576 0 3571 5Q3565 20 3561 23Q3558 26 3556 34Q3561 47 3568 55Q3575 64 3576 79Q3578 83 3581 86Q3585 89 3587 94Q3589 98 3589 102Q3590 106 3592 109Q3599 117 3600 121Q3601 125 3607 127Q3605 138 3612 141Q3619 145 3619 153Q3619 163 3615 171Q3611 180 3611 190Q3611 197 3614 200Q3618 204 3622 207Q3627 210 3631 213Q3635 217 3637 222L3647 222Q3655 232 3660 244Q3665 256 3671 267Q3673 271 3672 276Q3671 282 3673 285Q3680 293 3679 296Q3678 300 3685 302Q3684 311 3686 314Q3689 317 3690 324Q3693 328 3696 330Q3700 333 3704 335L3704 348Q3708 350 3710 353Q3712 357 3716 358Q3717 362 3716 364Q3716 367 3721 367Q3723 371 3722 374Q3721 378 3723 382Q3725 387 3729 390Q3733 394 3733 399Q3731 400 3731 402Q3732 404 3733 407Q3735 410 3735 413Q3736 416 3735 421Q3739 424 3740 427Q3742 431 3745 434Q3743 444 3745 451Q3747 458 3749 467Q3756 470 3759 475Q3758 482 3760 488Q3762 495 3764 501Q3767 507 3768 512Q3769 518 3766 525Q3769 533 3774 536Q3780 540 3778 551Q3785 557 3792 566Q3800 576 3797 586Q3805 597 3809 609Q3813 622 3811 636Q3816 646 3821 659Q3827 672 3826 683Q3832 685 3832 690Q3833 696 3835 701Q3837 703 3839 705Q3842 708 3842 712Q3848 717 3850 723Q3853 730 3857 735Q3860 741 3864 746Q3868 751 3871 757L3885 757Q3887 762 3891 763Q3896 765 3901 765Q3907 765 3913 764Q3919 764 3923 766Q3926 762 3929 760Q3933 758 3936 756Q3939 754 3941 751Q3943 748 3942 742Q3946 741 3948 739Q3950 737 3954 737Q3952 732 3955 728Q3959 725 3959 720Q3959 718 3956 715Q3954 712 3954 707Q3954 699 3957 693Q3960 687 3964 681Q3963 673 3961 670Q3959 668 3964 660Q3963 653 3964 652Q3965 651 3966 650Q3967 649 3967 646Q3968 644 3968 638Q3975 628 3974 623Q3974 619 3981 618Q3981 608 3985 601Q3990 594 3997 588Q3997 580 4000 575Q4003 570 4002 562Q4004 554 4012 549Q4010 542 4011 535Q4013 528 4016 521Q4019 515 4022 508Q4026 501 4028 495Q4034 470 4041 451Q4048 433 4064 413Q4063 411 4064 406Q4065 401 4062 402Q4066 397 4073 385Q4080 374 4078 367Q4085 355 4085 346Q4086 338 4088 330Q4096 322 4099 311Q4102 300 4114 296Q4112 282 4120 267Q4129 253 4131 239Q4139 231 4143 220Q4148 210 4155 200Q4154 195 4154 187Q4154 180 4162 181Q4161 175 4163 171Q4165 167 4167 164Q4170 161 4172 158Q4175 155 4176 151Q4184 143 4188 140L4188 122Q4193 117 4198 111Q4204 105 4212 103Q4207 87 4214 77Q4221 67 4221 59Q4221 55 4220 52Q4219 50 4219 47Q4219 43 4220 40Q4221 38 4221 35Q4221 24 4215 17Q4209 10 4200 6Q4192 2 4182 0Q4172 -1 4164 -1ZM3966 397Q3966 411 3959 422Q3953 434 3954 447Q3949 448 3949 452Q3949 457 3945 458Q3949 465 3943 473Q3938 482 3940 493Q3937 495 3935 499Q3933 503 3931 506Q3928 526 3916 541Q3905 557 3900 575Q3896 576 3893 578Q3891 580 3888 582Q3886 578 3883 577Q3880 577 3878 575Q3873 570 3873 562Q3874 554 3866 547Q3866 544 3866 540Q3866 536 3869 534Q3861 532 3861 527Q3861 522 3859 517Q3853 505 3854 500Q3855 496 3854 491L3845 475Q3841 473 3839 469Q3837 466 3835 462Q3830 454 3827 448Q3824 443 3826 432Q3821 422 3819 420Q3817 418 3816 415Q3815 411 3815 407Q3816 403 3816 400Q3808 390 3805 378Q3802 366 3802 354Q3799 349 3797 346Q3796 344 3795 342Q3795 341 3794 339Q3794 337 3792 332Q3783 323 3774 308Q3766 293 3766 285Q3763 284 3761 282Q3759 280 3757 278Q3758 269 3755 262Q3753 256 3752 248Q3757 245 3764 244Q3771 243 3776 248Q3777 246 3779 245Q3782 245 3785 245Q3788 245 3790 244Q3793 244 3792 241Q3812 242 3833 243Q3854 244 3873 237Q3892 240 3912 241Q3933 242 3952 237Q3968 243 3984 242Q4000 241 4016 244Q4014 249 4020 250Q4026 251 4026 261Q4026 269 4020 277Q4015 285 4012 293Q4010 298 4009 303Q4009 308 4007 313Q4005 316 4002 318Q3999 320 3997 324Q3990 343 3983 361Q3977 380 3966 397ZM4703 81Q4700 76 4695 72Q4691 68 4688 63Q4691 57 4690 52Q4690 47 4689 40Q4683 37 4678 32Q4673 27 4666 32Q4659 24 4644 23Q4630 22 4621 26Q4618 24 4615 21Q4612 19 4608 17Q4602 16 4600 11Q4593 9 4586 10Q4579 11 4572 11Q4555 9 4549 12Q4544 16 4534 11Q4526 13 4521 19Q4514 18 4512 15Q4510 13 4505 11Q4497 12 4488 13Q4480 14 4472 14Q4465 14 4460 11Q4455 8 4453 8Q4438 11 4431 8Q4424 6 4417 4Q4412 2 4402 2Q4399 1 4395 0Q4392 -1 4389 -4Q4383 -2 4373 -1Q4363 0 4363 -11Q4360 -7 4359 -4Q4359 0 4352 -1Q4345 8 4342 7Q4339 6 4337 8Q4335 13 4334 15Q4333 18 4328 20Q4324 25 4320 28Q4316 32 4313 37Q4312 42 4314 44Q4317 47 4319 52Q4315 54 4314 56Q4313 59 4311 64Q4311 69 4313 73Q4316 78 4319 83Q4315 88 4316 92Q4318 97 4318 102Q4318 111 4315 119Q4313 127 4313 135Q4313 143 4314 152Q4316 161 4308 166Q4311 180 4308 194Q4305 208 4311 221Q4310 227 4307 230Q4305 234 4303 239Q4305 245 4304 251Q4304 258 4303 264Q4303 270 4303 276Q4303 283 4306 289Q4303 295 4301 303Q4300 312 4299 322Q4299 332 4300 340Q4301 349 4303 355Q4304 361 4302 362Q4300 363 4298 368Q4300 375 4300 382Q4300 389 4304 395Q4299 403 4299 413Q4300 423 4301 433Q4303 444 4303 454Q4304 465 4298 475Q4298 482 4302 484Q4306 487 4306 492L4306 512Q4309 513 4311 515Q4313 518 4315 520Q4320 525 4325 525Q4330 526 4336 534Q4349 537 4349 534Q4350 531 4355 526Q4360 528 4363 527Q4366 526 4371 524Q4376 515 4385 500Q4395 485 4395 475Q4395 472 4391 469Q4387 466 4385 463Q4385 459 4385 456Q4385 454 4383 451Q4382 444 4384 442Q4387 440 4388 435Q4380 430 4382 424Q4385 419 4385 412Q4385 406 4382 401Q4380 397 4387 392Q4380 387 4385 379Q4384 373 4383 367Q4383 361 4383 354Q4383 349 4385 346Q4388 343 4388 340Q4388 338 4386 335Q4385 333 4385 330Q4385 327 4386 324Q4388 322 4388 319Q4388 317 4385 313Q4383 310 4383 306Q4383 298 4385 288Q4387 279 4392 271Q4387 264 4390 257Q4393 251 4388 248Q4385 242 4389 240Q4393 239 4393 236Q4393 233 4391 230Q4390 228 4390 225Q4390 218 4392 211Q4394 205 4387 200Q4393 185 4397 166Q4402 148 4400 131Q4406 129 4406 123Q4406 117 4413 115Q4412 110 4410 108Q4409 106 4414 101Q4433 93 4452 97Q4471 101 4491 101Q4501 101 4504 99Q4508 98 4509 95Q4511 93 4512 91Q4513 90 4519 90Q4541 97 4557 94Q4573 92 4585 98Q4588 98 4591 95Q4594 93 4598 92Q4604 101 4614 101Q4625 102 4633 110Q4641 111 4649 110Q4657 114 4666 115Q4675 117 4684 120Q4695 115 4698 103Q4702 92 4703 81ZM4885 49Q4883 46 4881 43Q4879 41 4878 38Q4872 36 4868 33Q4864 31 4857 31Q4844 18 4830 11Q4824 16 4816 17Q4809 19 4801 18Q4801 19 4798 22Q4795 26 4791 29Q4788 33 4785 36Q4782 40 4781 40Q4781 52 4778 64Q4776 76 4776 87Q4776 95 4779 103Q4782 111 4782 119Q4782 128 4781 137Q4781 146 4781 155Q4781 159 4782 162Q4783 165 4783 169Q4783 174 4780 178Q4778 183 4778 188Q4778 193 4779 197Q4781 201 4781 206Q4781 213 4776 218Q4777 223 4779 226Q4781 229 4783 234Q4776 254 4781 270Q4786 286 4786 306Q4786 310 4784 312Q4782 315 4781 319Q4786 326 4783 330Q4780 335 4778 340Q4781 343 4781 351Q4781 359 4781 363Q4782 368 4780 370Q4779 372 4778 377Q4783 383 4779 395Q4776 407 4776 415Q4776 419 4776 426Q4777 434 4777 442Q4777 450 4777 457Q4777 464 4776 468Q4774 471 4772 474Q4770 477 4770 481Q4770 486 4772 492Q4774 498 4773 503Q4778 506 4780 507Q4782 508 4788 506Q4790 513 4795 520Q4800 527 4808 527Q4812 527 4815 524Q4818 521 4821 519Q4824 517 4827 516Q4830 516 4833 521Q4839 519 4842 514Q4845 510 4853 509Q4855 502 4859 495Q4863 489 4863 482Q4863 477 4861 472Q4860 468 4860 463Q4860 460 4861 457Q4863 454 4863 450Q4863 444 4861 438Q4860 432 4860 425Q4860 419 4863 415Q4866 412 4866 407Q4866 399 4865 397Q4865 395 4870 388Q4871 383 4869 380Q4868 377 4868 374Q4868 369 4870 366Q4873 363 4873 360Q4873 357 4871 354Q4870 351 4870 348Q4870 323 4873 301Q4874 295 4876 289Q4878 284 4878 279Q4878 273 4876 267Q4875 262 4875 256Q4875 244 4876 232Q4878 221 4876 209Q4878 204 4878 199Q4878 195 4883 193Q4881 188 4878 186Q4876 184 4878 177Q4876 169 4880 165Q4884 161 4884 157Q4884 156 4881 154Q4878 153 4878 148Q4878 144 4880 141Q4883 139 4883 135Q4883 130 4882 125Q4881 120 4881 115Q4881 104 4884 92Q4887 80 4877 70Q4882 65 4881 59Q4880 53 4885 49ZM4994 420L4994 425L4992 435Q4995 438 4997 442Q4999 446 4999 451Q4999 459 4996 461Q4993 464 4989 470Q4990 478 4988 484Q4987 491 4989 499Q4994 507 5000 515Q5006 524 5012 532Q5030 544 5045 543Q5060 543 5070 531Q5081 533 5091 533Q5102 533 5113 534Q5123 532 5125 534Q5128 536 5130 536Q5138 536 5140 534Q5142 532 5151 536Q5156 535 5160 533Q5165 532 5170 531Q5177 531 5184 531Q5191 532 5198 532Q5206 532 5214 529Q5222 526 5230 526Q5234 526 5235 527Q5237 529 5239 531Q5250 525 5263 524Q5277 524 5288 519Q5294 514 5297 514Q5300 515 5303 515Q5306 516 5308 514Q5311 512 5315 502Q5320 502 5324 500Q5329 498 5334 499Q5337 485 5345 476Q5353 468 5362 458Q5361 454 5361 452Q5362 450 5367 448Q5371 434 5371 421Q5371 409 5371 395Q5371 381 5374 367Q5377 353 5376 339Q5375 337 5367 331Q5359 326 5358 326Q5357 324 5355 318Q5353 313 5351 307Q5349 301 5347 295Q5346 290 5346 288Q5346 283 5350 282Q5355 281 5359 281Q5360 276 5363 273Q5366 270 5369 267Q5373 265 5375 262Q5378 259 5379 254Q5384 253 5387 249Q5391 246 5397 246Q5399 235 5404 226Q5409 217 5416 208Q5414 193 5421 185Q5428 178 5428 173Q5428 168 5425 165Q5422 163 5420 160Q5429 148 5423 135Q5417 122 5416 110Q5410 108 5409 105Q5408 103 5400 103Q5402 98 5401 96Q5401 95 5397 92Q5389 89 5387 82Q5386 76 5381 71Q5369 72 5365 65Q5361 59 5355 56Q5345 52 5336 46Q5327 40 5316 38Q5309 36 5302 36Q5296 37 5290 35Q5288 31 5284 29Q5281 27 5276 26Q5272 25 5268 23Q5264 22 5261 19Q5250 22 5238 19Q5226 16 5215 16Q5207 16 5199 17Q5192 18 5184 18Q5178 18 5172 17Q5167 16 5162 11Q5147 11 5137 11Q5127 12 5114 21Q5092 19 5078 25Q5065 31 5045 35Q5043 40 5040 42Q5037 44 5039 51Q5035 58 5029 61Q5023 64 5017 68Q5021 76 5018 83Q5016 90 5014 97Q5018 105 5018 115Q5018 125 5024 132Q5018 140 5019 149Q5020 159 5014 167Q5020 177 5019 189Q5019 202 5016 215Q5013 228 5009 240Q5006 253 5006 264Q5006 268 5007 271Q5009 274 5009 278Q5009 283 5007 287Q5005 292 5004 297Q5004 311 4999 314Q5003 323 5000 325Q4998 328 4998 335Q4998 337 5001 339Q5004 342 5004 346Q5004 357 5001 365Q4998 374 4996 385L4996 395Q4998 403 4998 408Q4998 413 4996 415Q4994 418 4994 420ZM5286 391Q5289 396 5287 399Q5285 402 5284 407Q5286 410 5288 411Q5291 413 5289 420Q5283 420 5282 424Q5282 428 5282 432Q5277 433 5272 435Q5267 437 5262 437Q5261 443 5259 443Q5257 444 5252 442Q5245 449 5242 448Q5240 447 5238 447Q5235 447 5225 452Q5215 457 5202 455Q5189 457 5183 461Q5177 465 5168 465Q5163 465 5158 463Q5153 462 5148 462Q5144 464 5136 464Q5129 464 5120 463Q5112 462 5105 460Q5098 458 5095 455Q5091 457 5089 457Q5088 458 5083 457Q5081 452 5078 450Q5075 448 5073 441Q5077 439 5077 435Q5078 431 5080 427Q5075 425 5071 422Q5068 419 5065 415Q5069 410 5072 405Q5076 401 5078 396Q5069 385 5073 375Q5078 365 5083 355Q5084 340 5085 325Q5086 310 5091 296Q5104 298 5111 294Q5119 291 5130 291Q5139 291 5146 297Q5153 303 5164 298Q5170 307 5182 307Q5194 308 5204 308Q5210 315 5218 317Q5227 319 5235 318Q5244 323 5257 330Q5270 337 5274 347Q5280 348 5284 353Q5288 359 5290 366Q5292 373 5291 380Q5290 387 5286 391ZM5335 193Q5330 195 5324 197Q5319 199 5314 201Q5312 209 5306 213Q5300 217 5295 222Q5289 220 5282 220Q5276 220 5270 217Q5263 224 5253 225Q5243 227 5239 237L5228 237Q5215 234 5211 234Q5202 234 5198 233Q5194 232 5192 230Q5190 229 5187 227Q5185 226 5179 224Q5174 222 5170 222Q5166 223 5161 221Q5158 219 5155 216Q5153 214 5150 212Q5144 213 5141 211Q5139 209 5135 209Q5125 204 5122 198Q5119 193 5106 195Q5099 175 5102 152Q5105 129 5105 108Q5118 104 5132 97Q5146 90 5159 90Q5163 90 5166 91Q5169 92 5173 92Q5180 93 5187 92Q5194 92 5202 92Q5217 92 5226 97Q5236 102 5243 102Q5256 100 5262 104Q5268 109 5275 104Q5282 111 5287 117Q5292 123 5301 128Q5310 128 5313 130Q5317 133 5321 136Q5326 140 5330 143Q5334 147 5337 148Q5337 155 5339 161Q5342 167 5342 174Q5342 182 5337 184Q5333 186 5335 193ZM6067 51Q6063 37 6066 21Q6061 13 6052 7Q6044 1 6036 -4Q6026 -3 6016 0Q6007 4 5997 6Q5994 13 5988 17Q5983 21 5980 27Q5977 32 5976 41Q5976 50 5975 59Q5974 68 5971 75Q5969 82 5963 84Q5964 94 5953 108Q5942 122 5937 132Q5929 137 5923 144Q5917 152 5912 160Q5902 158 5899 163Q5897 168 5890 166Q5890 169 5888 171Q5887 174 5886 176Q5877 184 5867 190Q5858 196 5850 204Q5845 204 5840 202Q5836 201 5833 207Q5828 207 5824 204Q5821 202 5818 202Q5815 202 5812 203Q5810 204 5807 204Q5796 204 5784 203Q5773 203 5762 199Q5760 201 5757 204Q5754 207 5752 207Q5750 207 5739 201Q5729 196 5721 195Q5707 193 5688 192Q5669 191 5659 178Q5654 180 5648 179Q5642 179 5641 172Q5635 173 5632 174Q5630 176 5624 174Q5619 164 5624 156Q5629 148 5631 139Q5632 131 5632 115Q5632 99 5640 94Q5637 87 5636 80Q5635 73 5635 65Q5635 62 5636 59Q5638 57 5638 53Q5638 48 5635 44Q5633 41 5634 36Q5627 34 5626 27Q5625 21 5625 16Q5617 16 5611 13Q5606 11 5600 8Q5595 5 5589 4Q5583 3 5575 6Q5566 19 5551 30Q5552 34 5550 38Q5549 43 5544 43Q5545 54 5542 59Q5539 64 5534 73Q5534 79 5537 84Q5540 90 5542 95Q5540 105 5539 116Q5538 127 5532 135Q5532 139 5533 141Q5534 144 5534 147Q5534 154 5531 162Q5528 170 5526 178Q5524 186 5523 193Q5523 200 5528 204Q5520 212 5519 218Q5519 225 5517 235Q5515 240 5513 243Q5511 247 5509 252Q5507 262 5508 272Q5510 283 5505 293Q5504 295 5503 297Q5502 300 5502 303Q5502 308 5503 312Q5504 316 5504 321Q5504 342 5503 363Q5502 384 5502 405Q5502 409 5502 412Q5503 415 5503 418Q5503 423 5500 428Q5504 439 5500 449Q5496 460 5490 470Q5492 475 5491 481Q5491 487 5491 492Q5491 503 5496 506Q5502 509 5502 517Q5514 518 5521 532Q5528 532 5532 535Q5537 539 5543 541Q5549 535 5558 535Q5565 535 5571 537Q5577 540 5584 541Q5593 543 5602 542Q5611 541 5621 541Q5626 541 5630 542Q5635 544 5640 544Q5643 544 5646 542Q5649 541 5653 541Q5667 541 5680 545Q5694 549 5707 541Q5715 543 5719 544Q5724 546 5732 541Q5737 543 5741 543Q5745 544 5750 546Q5757 546 5763 543Q5769 541 5776 541Q5781 541 5785 542Q5789 544 5794 544Q5805 544 5814 540Q5824 536 5836 539Q5844 533 5855 525Q5867 518 5877 528Q5880 526 5882 524Q5885 522 5886 517Q5893 515 5895 517Q5898 519 5903 519Q5908 514 5910 514Q5912 514 5919 514Q5928 509 5930 509Q5933 504 5937 503Q5942 502 5943 497Q5960 495 5969 487Q5979 479 5985 464Q5987 459 5997 459Q5996 443 6002 437Q6009 432 6022 426Q6021 418 6020 410Q6020 403 6020 395Q6022 379 6016 372Q6010 366 6012 354Q6009 353 6002 353Q6002 346 6005 342Q5989 336 5980 322Q5971 308 5958 300L5958 290Q5956 288 5953 288Q5950 289 5948 289Q5948 283 5945 278Q5942 273 5942 268Q5935 264 5928 263Q5929 257 5932 250Q5936 244 5943 242Q5945 240 5946 237Q5947 234 5949 232Q5951 230 5953 229Q5956 229 5958 227Q5963 223 5965 218Q5968 213 5973 210Q5982 203 5992 198Q6002 194 6010 183Q6014 171 6020 164Q6026 158 6033 150Q6040 143 6047 136Q6054 130 6057 128Q6057 122 6056 120Q6056 119 6062 115Q6063 109 6062 99Q6062 90 6061 80Q6061 70 6062 62Q6063 54 6067 51ZM5912 418Q5907 418 5901 419Q5896 421 5890 420Q5890 421 5886 424Q5882 427 5877 430Q5872 434 5867 437Q5863 440 5862 440Q5858 441 5854 440Q5850 440 5846 440Q5837 440 5831 445Q5825 450 5817 452Q5815 453 5812 452Q5809 452 5807 452Q5803 452 5800 454Q5797 457 5793 457Q5789 457 5786 456Q5783 455 5779 455Q5774 455 5768 458Q5763 461 5757 458Q5749 466 5737 465Q5726 465 5715 467Q5710 468 5704 470Q5698 472 5693 472Q5689 472 5686 469Q5683 467 5680 467Q5677 467 5674 468Q5671 470 5668 470Q5654 470 5642 464Q5631 459 5615 465Q5603 454 5586 444Q5587 417 5586 390Q5585 386 5584 382Q5583 378 5583 374Q5583 371 5586 368Q5589 366 5591 364Q5586 359 5585 354Q5585 349 5586 343Q5587 338 5589 333Q5591 328 5591 323Q5588 320 5587 311Q5587 302 5589 291Q5591 281 5594 271Q5598 262 5603 258Q5614 265 5624 263Q5635 261 5646 266Q5650 268 5653 269Q5657 271 5661 271Q5667 271 5672 269Q5678 268 5684 268Q5692 268 5700 268Q5708 269 5716 269Q5727 277 5739 277Q5752 277 5765 279Q5777 281 5787 285Q5797 290 5811 288Q5820 298 5823 303Q5826 308 5831 311Q5837 309 5840 310Q5843 311 5845 312Q5848 314 5852 315Q5856 316 5863 315Q5866 325 5875 327Q5884 330 5888 340Q5893 341 5896 341Q5899 341 5901 345Q5906 360 5911 365Q5917 370 5920 374Q5923 379 5922 387Q5921 395 5912 418ZM6760 71Q6759 66 6751 63Q6743 61 6738 56Q6738 50 6735 47Q6732 45 6733 37Q6728 35 6723 28Q6718 21 6713 21Q6706 21 6701 24Q6697 28 6688 26Q6680 41 6666 47Q6659 60 6652 72Q6645 84 6639 97Q6624 110 6615 114Q6606 119 6598 117Q6591 116 6582 110Q6574 104 6559 95Q6549 95 6531 95Q6514 95 6506 99Q6503 100 6500 101Q6498 103 6495 103Q6491 103 6487 101Q6484 100 6480 100Q6476 100 6473 101Q6470 102 6466 103Q6462 103 6459 102Q6457 102 6454 103Q6448 100 6445 97Q6443 95 6439 95Q6425 100 6409 102Q6394 104 6380 112Q6372 114 6371 109Q6370 105 6365 105Q6354 106 6345 104Q6336 103 6325 103Q6320 103 6314 104Q6309 105 6304 105Q6298 105 6293 102Q6288 100 6283 100Q6279 100 6276 101Q6273 103 6268 103Q6263 103 6259 100Q6256 98 6252 98Q6247 98 6243 98Q6239 99 6235 99Q6226 99 6222 95Q6218 92 6216 86Q6215 81 6214 75Q6213 70 6208 66Q6210 51 6207 42Q6204 33 6195 21Q6182 20 6170 17Q6158 15 6145 15Q6137 15 6134 20Q6131 25 6126 30Q6119 36 6115 42Q6112 48 6107 56Q6108 60 6111 62Q6115 65 6118 67Q6116 73 6117 77Q6119 81 6122 85Q6125 89 6127 93Q6130 98 6130 103Q6130 109 6130 111Q6131 113 6132 114Q6133 115 6134 116Q6135 117 6137 121Q6139 125 6138 128Q6137 132 6139 136Q6143 145 6148 152Q6154 160 6159 168Q6161 173 6162 177Q6164 181 6166 185Q6169 193 6177 200L6177 213Q6180 217 6182 220Q6184 223 6189 225Q6188 237 6195 245Q6202 254 6204 265Q6218 273 6227 287Q6237 302 6234 319Q6242 322 6246 330Q6250 338 6258 341Q6258 349 6260 355Q6263 361 6263 369Q6272 374 6275 382Q6279 391 6283 399Q6284 401 6287 406Q6290 412 6293 418Q6296 424 6298 428Q6301 433 6301 435Q6319 465 6322 491Q6328 497 6330 499Q6333 502 6334 504Q6335 507 6335 510Q6335 514 6337 521Q6340 520 6342 523Q6345 527 6348 532Q6352 537 6357 541Q6363 546 6372 546Q6382 546 6391 544Q6400 542 6410 541Q6415 535 6420 530Q6426 525 6431 518L6431 506Q6439 496 6446 485Q6454 475 6466 470Q6465 459 6470 457Q6476 456 6483 451Q6482 442 6484 437Q6487 433 6490 427Q6494 422 6497 417Q6500 413 6501 411Q6506 402 6513 402Q6512 397 6516 395Q6520 394 6518 387Q6527 378 6540 373Q6540 366 6545 360Q6550 355 6555 352Q6556 347 6559 345Q6562 343 6565 341Q6570 338 6572 333Q6575 328 6580 326Q6581 317 6590 305Q6599 294 6609 282Q6619 271 6627 261Q6635 252 6634 247Q6642 242 6649 236Q6657 231 6667 227Q6667 219 6666 215Q6666 212 6667 209Q6668 207 6671 205Q6674 203 6681 198Q6680 193 6685 186Q6687 182 6688 177Q6689 173 6692 168Q6697 160 6705 155Q6714 151 6721 145Q6726 134 6729 123Q6732 112 6736 101Q6743 94 6751 91Q6752 86 6753 80Q6755 74 6760 71ZM6528 259Q6522 260 6519 263Q6516 267 6511 268Q6512 281 6506 282Q6500 283 6493 290Q6493 295 6489 296Q6485 298 6483 302Q6479 313 6478 314Q6477 316 6472 319Q6468 321 6468 324Q6468 327 6460 331Q6456 333 6452 334Q6448 335 6446 339Q6440 350 6431 362Q6423 375 6421 389Q6411 395 6406 403Q6402 411 6388 413Q6380 403 6377 391Q6374 380 6364 372L6364 359Q6359 353 6353 346Q6348 339 6349 331Q6341 329 6341 323Q6341 317 6337 312Q6335 309 6332 308Q6330 307 6330 302Q6325 292 6323 286Q6321 280 6318 275Q6307 270 6309 266Q6311 262 6308 255Q6304 248 6298 245Q6293 243 6295 232Q6284 222 6276 209Q6269 197 6271 182Q6281 183 6291 182Q6301 181 6311 181Q6322 181 6331 185Q6341 189 6352 189Q6365 189 6378 182Q6391 176 6403 182Q6408 180 6411 178Q6414 176 6419 174Q6452 168 6486 179Q6496 175 6501 174Q6504 176 6512 177Q6520 178 6528 179Q6537 180 6543 182Q6550 184 6549 187Q6556 191 6560 191Q6565 191 6565 202Q6565 208 6560 215Q6555 222 6548 229Q6541 237 6535 244Q6529 252 6528 259ZM7294 92Q7286 78 7286 62Q7287 46 7282 32Q7268 34 7266 29Q7265 25 7255 25Q7235 25 7219 36Q7214 37 7210 36Q7206 35 7201 33Q7199 35 7198 38Q7198 41 7197 44Q7195 51 7191 54Q7187 58 7185 63Q7183 71 7183 75Q7183 79 7178 85Q7187 105 7192 120Q7198 136 7193 158Q7190 162 7184 164Q7179 166 7173 166Q7167 167 7161 167Q7155 168 7151 170Q7146 167 7140 165Q7135 163 7130 160Q7126 160 7124 162Q7122 165 7116 165Q7111 165 7107 163Q7103 162 7098 162Q7086 162 7074 164Q7063 167 7051 167Q7046 167 7042 166Q7038 165 7033 165Q7022 165 7011 170Q7001 175 6994 175Q6989 175 6985 172Q6982 169 6977 169Q6973 169 6969 170Q6966 172 6962 172Q6959 174 6953 174Q6947 174 6941 171Q6935 169 6929 165Q6923 161 6920 158Q6920 150 6920 145Q6920 141 6920 137Q6921 133 6923 129Q6926 126 6930 119Q6934 112 6937 105Q6940 99 6943 92Q6933 81 6943 82Q6939 64 6935 61Q6932 59 6930 50Q6931 47 6929 42Q6928 38 6932 36Q6930 31 6923 28Q6916 25 6920 18Q6918 16 6914 15Q6911 15 6908 13L6885 6Q6880 6 6878 7Q6877 8 6872 11Q6867 15 6861 14Q6856 14 6852 17Q6846 26 6844 31Q6843 37 6843 42Q6838 47 6836 55Q6834 63 6827 67Q6830 74 6836 76Q6835 87 6835 97Q6836 107 6836 118Q6836 129 6835 142Q6834 155 6829 164Q6827 167 6825 169Q6824 172 6823 175Q6822 180 6822 185Q6823 191 6823 196Q6823 202 6820 206Q6818 211 6818 216Q6818 219 6819 222Q6820 226 6820 229Q6821 251 6820 265Q6819 279 6818 293Q6820 307 6822 309Q6824 312 6824 320Q6824 325 6823 329Q6823 333 6823 338Q6823 353 6824 369Q6825 385 6823 400Q6822 406 6820 410Q6819 415 6819 422Q6819 427 6816 432Q6813 437 6809 440Q6810 443 6810 446Q6810 450 6810 453Q6820 455 6816 465Q6817 473 6814 474Q6811 475 6806 480Q6810 491 6811 502Q6813 513 6815 524Q6829 528 6841 534Q6853 540 6865 546Q6873 543 6877 540Q6881 537 6880 527Q6887 523 6894 522Q6892 514 6896 509Q6900 504 6900 497Q6900 491 6897 485Q6894 479 6892 474Q6895 470 6894 465Q6894 460 6893 455Q6893 450 6892 446Q6892 442 6895 440Q6894 422 6898 411Q6902 400 6902 392Q6902 387 6899 383Q6897 379 6902 374Q6903 371 6899 369Q6895 367 6895 362Q6895 354 6898 346Q6901 339 6900 331Q6899 322 6899 319Q6900 317 6900 315Q6900 301 6898 289Q6897 278 6900 265Q6908 260 6916 257Q6924 255 6932 251Q6943 253 6953 256Q6964 259 6975 259Q6982 259 6988 256Q6994 254 7000 254Q7007 254 7013 256Q7019 259 7025 259Q7030 259 7037 254Q7044 249 7048 246Q7056 245 7058 248Q7060 252 7065 254Q7068 247 7076 244L7098 244Q7110 244 7121 249Q7132 254 7144 254Q7147 254 7149 252Q7151 251 7154 251Q7157 251 7159 253Q7162 256 7165 256Q7173 256 7179 255Q7186 255 7193 260Q7193 268 7193 279Q7193 291 7186 297Q7191 317 7187 336Q7183 355 7183 375Q7183 380 7184 385Q7186 390 7186 395Q7186 400 7183 402Q7180 405 7178 410Q7180 421 7178 434Q7176 448 7168 456Q7167 459 7169 461Q7171 464 7171 467Q7171 472 7169 476Q7167 480 7167 485Q7167 499 7171 512Q7176 526 7178 540Q7187 544 7196 547Q7206 550 7214 558Q7220 556 7226 552Q7232 549 7238 547Q7239 543 7239 541Q7240 539 7244 538Q7246 538 7247 532Q7248 527 7253 528Q7254 519 7258 517Q7259 512 7258 507Q7257 503 7262 500Q7261 496 7258 493Q7255 491 7255 487Q7255 479 7257 470Q7259 462 7260 453Q7262 445 7262 436Q7262 428 7257 420Q7260 412 7265 403Q7270 394 7272 385Q7271 381 7268 378Q7265 375 7265 370Q7265 357 7266 344Q7267 331 7270 318Q7268 311 7269 308Q7271 305 7273 302Q7278 291 7278 274Q7279 257 7274 246Q7279 236 7279 220Q7279 215 7277 202Q7275 190 7274 176Q7274 163 7275 152Q7277 142 7284 142Q7282 132 7284 123Q7286 115 7282 105Q7283 100 7286 97Q7289 95 7294 92ZM8106 28Q8105 25 8102 23Q8099 21 8097 19Q8095 17 8094 14Q8093 11 8096 7Q8094 2 8083 1Q8072 1 8066 -6Q8062 -8 8058 -7Q8055 -5 8051 -8Q8042 -3 8035 4Q8029 12 8018 15Q8017 22 8012 26Q8007 30 8007 36Q8008 49 8005 50Q8002 52 8000 57Q7998 60 7998 63Q7998 67 7994 68Q7996 73 7998 78Q8001 83 8003 88Q7998 99 7990 109Q7982 119 7982 132Q7982 137 7982 141Q7983 145 7983 150Q7983 154 7981 157Q7980 160 7983 164Q7981 170 7978 175Q7976 181 7974 187Q7977 188 7978 194Q7979 201 7978 208Q7977 216 7976 223Q7975 231 7975 234Q7975 238 7976 242Q7977 246 7977 250Q7981 267 7977 279Q7973 291 7973 300Q7973 314 7974 327Q7975 340 7966 354Q7951 347 7948 333L7937 333Q7934 330 7934 328Q7934 327 7935 323Q7931 322 7930 319Q7929 316 7928 313Q7927 310 7923 304Q7919 299 7914 293Q7910 287 7905 281Q7901 275 7899 272Q7898 266 7896 260Q7895 255 7896 249L7884 249Q7881 238 7881 228Q7870 206 7865 193Q7860 180 7849 168Q7851 162 7849 160Q7847 158 7847 153Q7839 145 7834 139Q7829 133 7827 122Q7822 120 7820 116Q7819 113 7817 109Q7816 106 7813 103Q7811 100 7805 99Q7810 92 7809 86Q7809 81 7812 75Q7812 71 7808 70Q7804 70 7802 64Q7800 59 7800 54Q7801 49 7800 44Q7798 39 7797 38Q7797 38 7796 37Q7795 36 7795 33Q7795 31 7795 23Q7787 21 7790 13Q7785 15 7784 11Q7783 8 7784 4Q7779 5 7774 4Q7769 4 7766 -1Q7762 2 7757 0Q7753 -1 7748 -1Q7742 5 7736 4Q7730 3 7722 3Q7717 14 7710 21Q7703 28 7701 42Q7696 47 7693 53Q7691 59 7686 64Q7686 75 7682 85Q7678 96 7668 102Q7667 111 7663 118Q7659 126 7654 133Q7654 140 7651 145Q7649 151 7646 155Q7643 160 7640 165Q7637 170 7636 176Q7632 178 7629 181Q7627 185 7622 187Q7621 192 7619 195Q7618 199 7616 203Q7605 213 7599 226Q7593 239 7582 248Q7583 251 7581 253Q7580 255 7579 258Q7563 271 7554 289Q7546 308 7533 317Q7523 329 7518 336Q7514 343 7506 348Q7498 349 7498 345Q7498 341 7500 336Q7500 333 7499 330Q7498 327 7498 324Q7498 321 7499 318Q7500 316 7500 313Q7500 296 7497 279Q7495 263 7495 246Q7495 244 7496 241Q7497 238 7497 235Q7497 231 7495 228Q7494 225 7494 220Q7494 211 7495 201Q7497 192 7498 183Q7502 181 7503 178Q7505 175 7507 172Q7506 165 7506 158Q7507 151 7510 145Q7508 141 7506 138Q7504 135 7508 131Q7508 126 7511 124Q7514 122 7517 120Q7520 119 7522 117Q7525 115 7525 110Q7525 104 7520 100Q7516 97 7512 93Q7519 77 7520 61Q7517 59 7514 57Q7511 56 7509 52Q7499 41 7501 39Q7504 38 7503 35Q7492 30 7484 21Q7476 13 7464 11Q7457 17 7451 20Q7446 23 7436 21Q7432 24 7431 27Q7430 31 7424 31Q7424 39 7420 42Q7417 45 7414 51Q7416 61 7413 70Q7411 80 7411 90Q7411 100 7412 109Q7414 119 7414 129Q7414 134 7412 138Q7411 142 7411 147Q7411 150 7412 153Q7414 156 7414 159Q7414 162 7412 164Q7410 167 7409 170Q7407 176 7406 182Q7406 188 7406 194Q7406 199 7408 203Q7411 207 7411 212Q7411 221 7409 230Q7408 240 7408 250Q7408 257 7411 261Q7414 266 7414 271Q7414 279 7412 287Q7411 295 7409 303Q7411 319 7411 323Q7411 328 7412 330Q7414 333 7415 335Q7417 337 7417 342Q7417 347 7415 352Q7414 358 7414 363Q7414 375 7416 386Q7419 398 7419 410Q7419 415 7417 418Q7415 421 7414 425Q7417 427 7416 431Q7415 436 7415 439Q7417 452 7414 452Q7411 453 7409 455Q7411 465 7415 470Q7419 476 7420 490Q7420 497 7419 504Q7419 512 7423 519Q7432 521 7435 528Q7438 536 7440 544Q7447 543 7452 550Q7456 549 7461 550Q7467 552 7474 553Q7481 554 7490 552Q7499 551 7510 545L7510 533Q7519 526 7521 513Q7524 501 7528 491Q7530 486 7534 477Q7539 468 7544 459Q7550 450 7556 442Q7562 435 7567 433Q7567 428 7569 423Q7572 419 7572 414Q7575 410 7577 405Q7579 401 7584 398Q7584 388 7589 383Q7595 378 7597 369Q7600 367 7603 366Q7607 366 7610 364Q7614 354 7622 348Q7630 342 7637 334Q7644 325 7650 315Q7656 306 7666 300Q7666 292 7668 285Q7671 279 7679 277Q7677 270 7682 267Q7688 265 7691 260Q7689 253 7692 254Q7695 255 7695 250Q7703 242 7703 238Q7704 235 7706 233Q7710 228 7713 223Q7716 219 7719 214Q7723 210 7726 205Q7729 201 7730 201Q7728 189 7733 181Q7738 173 7745 171Q7752 170 7758 177Q7765 185 7767 205Q7778 210 7779 220Q7780 230 7782 240Q7787 244 7789 249Q7792 254 7797 257Q7799 262 7798 263Q7797 264 7795 268Q7799 269 7799 272Q7800 276 7800 279Q7806 280 7805 284Q7805 288 7813 289Q7811 297 7813 299Q7815 302 7815 309Q7819 311 7818 312Q7818 314 7825 312Q7824 315 7824 320Q7825 325 7822 327Q7824 329 7828 328Q7832 328 7834 328Q7835 339 7841 345Q7848 352 7849 363Q7865 371 7870 380Q7875 390 7884 396Q7883 402 7884 405Q7886 409 7888 411Q7890 414 7892 417Q7894 420 7894 425Q7902 427 7904 434Q7906 442 7914 446Q7912 452 7916 464Q7920 477 7928 477Q7929 491 7935 499Q7941 507 7943 519Q7949 519 7955 522Q7957 530 7963 533Q7969 537 7972 544Q7989 546 7996 552Q8003 559 8013 554Q8017 549 8018 547Q8019 545 8017 539L8030 539Q8032 534 8032 531Q8033 529 8032 524Q8034 520 8037 518Q8041 516 8042 514Q8040 503 8043 491Q8046 479 8041 468Q8048 466 8046 458Q8045 450 8051 446Q8049 443 8048 440Q8047 438 8046 435Q8051 434 8051 432Q8051 431 8050 428Q8050 426 8050 422Q8051 418 8057 411Q8057 409 8054 408Q8052 407 8052 402Q8054 400 8055 397Q8057 394 8059 392Q8054 381 8058 375Q8062 369 8062 362Q8059 348 8061 344Q8064 340 8056 337Q8059 327 8061 316Q8064 306 8064 295Q8064 290 8063 284Q8062 279 8062 274Q8062 269 8064 266Q8067 263 8067 261Q8067 258 8065 257Q8063 256 8065 251Q8065 240 8061 231Q8058 223 8066 214Q8063 207 8065 200Q8067 193 8067 185Q8070 183 8071 180Q8073 178 8075 176Q8071 170 8074 165Q8077 160 8077 154Q8074 152 8074 146Q8075 141 8077 135Q8080 129 8083 123Q8086 117 8087 114Q8086 100 8092 97Q8093 93 8093 89Q8093 85 8098 83Q8096 76 8099 72Q8102 68 8106 63Q8107 46 8104 40Q8101 35 8106 28ZM8625 487Q8619 482 8612 472Q8606 462 8600 460Q8598 459 8595 459Q8592 460 8589 460Q8584 460 8582 458Q8580 456 8576 455Q8569 459 8562 460Q8555 461 8548 465Q8542 465 8539 462Q8536 459 8531 459Q8526 459 8521 461Q8517 463 8513 458Q8494 464 8474 466Q8455 469 8436 474Q8428 470 8420 470Q8413 471 8405 469Q8402 468 8399 466Q8396 465 8393 465Q8389 465 8386 466Q8383 467 8379 467Q8373 467 8367 464Q8361 462 8355 462Q8350 462 8347 464Q8344 467 8339 462Q8336 467 8332 464Q8329 462 8326 460Q8310 460 8304 461Q8299 463 8292 462Q8292 455 8292 442Q8292 429 8292 415Q8293 402 8293 390Q8293 379 8292 375Q8295 368 8302 368Q8310 368 8315 368Q8329 362 8343 361Q8358 361 8372 361Q8377 361 8380 362Q8384 363 8389 363Q8393 363 8401 361Q8410 360 8418 359Q8427 359 8433 361Q8440 363 8440 371Q8451 373 8455 367Q8460 361 8465 361Q8470 361 8472 365Q8474 369 8478 371Q8482 371 8483 367Q8484 364 8491 364Q8497 364 8504 368Q8512 373 8520 363Q8527 361 8530 363Q8533 365 8539 366Q8546 354 8555 343Q8564 333 8569 320Q8566 320 8562 317Q8558 314 8555 309Q8552 305 8550 301Q8548 297 8549 294Q8543 289 8536 284Q8530 280 8522 280Q8514 280 8512 283Q8511 286 8506 286Q8501 286 8497 284Q8494 283 8490 283Q8485 283 8479 284Q8474 286 8468 286Q8461 286 8454 283Q8448 281 8441 281Q8436 281 8432 283Q8429 285 8425 286Q8418 287 8412 287Q8406 288 8399 288Q8394 288 8390 285Q8387 283 8382 283Q8377 283 8371 284Q8366 286 8361 286Q8357 286 8354 285Q8351 284 8348 284Q8330 282 8319 280Q8308 279 8297 276Q8298 265 8298 254Q8299 243 8304 233Q8304 230 8301 229Q8299 228 8299 223Q8307 213 8308 201Q8310 190 8309 178Q8308 166 8307 154Q8306 142 8311 130Q8308 122 8306 115Q8305 109 8306 101Q8313 91 8324 91Q8329 91 8333 91Q8337 92 8342 92Q8346 92 8349 91Q8352 90 8356 90Q8368 90 8380 91Q8392 93 8404 93Q8408 93 8411 92Q8415 92 8419 92Q8426 92 8432 93Q8439 95 8446 95Q8451 95 8455 93Q8459 92 8464 92Q8473 92 8481 95Q8490 98 8499 98Q8501 98 8504 97Q8507 97 8509 97Q8514 97 8516 101Q8518 106 8520 107Q8525 108 8530 109Q8535 110 8540 111Q8544 112 8546 108Q8549 105 8550 102Q8559 101 8564 96Q8570 91 8578 90Q8580 85 8583 81Q8586 78 8591 78Q8589 70 8593 61Q8587 59 8582 54Q8578 49 8573 47Q8574 41 8575 35Q8576 30 8575 23Q8573 21 8569 21Q8566 22 8563 22Q8556 22 8554 17Q8553 13 8548 13Q8545 15 8540 15Q8535 15 8530 15Q8525 15 8520 15Q8516 15 8513 17Q8507 17 8503 14Q8499 12 8495 8Q8485 12 8476 9Q8468 6 8460 1Q8456 5 8452 5Q8449 5 8444 4Q8444 7 8441 9Q8439 12 8438 15Q8421 12 8404 13Q8387 15 8370 10Q8361 15 8348 15Q8336 15 8327 8Q8319 12 8310 8Q8301 5 8292 5Q8279 8 8276 5Q8274 3 8271 3Q8266 3 8261 3Q8257 3 8252 5Q8247 12 8243 12Q8240 12 8236 14Q8235 22 8227 29Q8219 36 8214 41Q8217 43 8220 44Q8224 46 8224 50Q8217 60 8216 64Q8216 68 8216 72Q8217 77 8216 81Q8216 86 8212 89Q8222 92 8222 96Q8222 110 8218 122Q8214 134 8214 148Q8222 156 8221 159Q8221 163 8221 173Q8221 184 8222 193Q8224 203 8215 211Q8217 221 8215 230Q8214 240 8214 250Q8214 262 8216 273Q8219 285 8219 297Q8219 304 8216 307Q8214 310 8214 313Q8217 326 8215 329Q8213 333 8212 338Q8210 353 8211 369Q8213 385 8213 401Q8213 412 8209 426Q8206 440 8208 446Q8206 449 8205 453Q8204 457 8200 459Q8206 467 8199 473Q8193 480 8193 488Q8193 497 8196 503Q8200 509 8196 519Q8205 523 8216 526Q8221 531 8222 534Q8223 538 8233 538Q8250 538 8266 535Q8282 533 8299 530Q8303 531 8306 531Q8309 532 8312 534Q8320 530 8327 530Q8334 531 8340 533Q8347 535 8353 537Q8360 540 8367 540Q8375 540 8382 538Q8389 537 8397 537Q8423 537 8449 540Q8476 544 8502 542Q8511 537 8509 533Q8513 535 8516 536Q8520 537 8525 537Q8537 537 8552 536Q8568 536 8579 533Q8585 527 8589 526Q8594 524 8598 522Q8602 521 8607 519Q8611 517 8614 515Q8618 514 8622 512Q8629 502 8624 497Q8620 493 8625 487Z" style="" fill="#000000"></path></g></g><g transform="matrix(0.75,0,0,0.75,3562.6563,900.7352)"><g transform="matrix(1.024,0,0,-1.024,0,0)"><path d="M704 247L796 646Q775 649 754 655Q733 662 710 671L710 700L934 700L934 671Q900 656 862 646L695 0L633 -12L472 532L314 0L253 -12L76 646Q56 651 37 657Q18 663 0 671L0 700L260 700L260 671Q241 664 221 657Q201 651 178 646L277 243L299 113L301 113L336 245L471 700L505 700L650 245L679 115L681 115L704 247ZM1366 86L1380 70Q1372 53 1355 38Q1338 23 1316 12Q1294 1 1268 -6Q1242 -12 1215 -12Q1156 -12 1111 6Q1066 25 1036 59Q1006 94 990 142Q975 190 975 250Q975 378 1034 445Q1093 512 1201 512Q1236 512 1270 502Q1304 493 1330 471Q1357 449 1373 412Q1390 376 1390 322Q1390 305 1388 287Q1387 270 1383 250L1071 250Q1071 208 1081 171Q1092 135 1113 108Q1134 81 1166 65Q1198 50 1241 50Q1276 50 1312 60Q1348 70 1366 86ZM1197 468Q1140 468 1110 429Q1080 391 1074 294L1294 294Q1295 303 1295 311Q1296 320 1296 328Q1296 392 1272 430Q1248 468 1197 468ZM1514 29L1514 682L1438 690L1438 716Q1469 729 1507 737Q1546 745 1579 752L1604 752L1604 401L1606 401Q1623 452 1663 482Q1704 512 1753 512Q1844 512 1892 450Q1941 388 1941 259Q1941 127 1874 59Q1808 -9 1683 -9Q1658 -9 1633 -6Q1608 -2 1585 3Q1562 8 1543 15Q1525 22 1514 29ZM1726 450Q1678 450 1648 417Q1618 385 1604 335L1604 56Q1622 46 1648 40Q1674 35 1703 35Q1769 35 1807 92Q1845 150 1845 259Q1845 298 1838 333Q1832 368 1817 394Q1803 420 1780 435Q1758 450 1726 450ZM2602 99L2598 99Q2593 77 2581 57Q2569 37 2551 21Q2534 6 2511 -3Q2489 -12 2463 -12Q2364 -12 2315 51Q2266 114 2266 247Q2266 375 2328 442Q2391 509 2497 509Q2534 509 2555 505Q2576 502 2601 493L2601 682L2525 690L2525 716Q2554 728 2592 737Q2631 746 2666 752L2691 752L2691 57L2757 49L2757 28Q2728 14 2697 4Q2666 -6 2636 -10L2611 -10L2602 99ZM2483 50Q2532 50 2561 81Q2590 112 2601 165L2601 447Q2584 457 2561 461Q2538 465 2502 465Q2434 465 2398 405Q2362 346 2362 247Q2362 206 2369 170Q2376 135 2391 108Q2406 81 2428 65Q2451 50 2483 50ZM3212 86L3226 70Q3218 53 3201 38Q3184 23 3162 12Q3140 1 3114 -6Q3088 -12 3061 -12Q3002 -12 2957 6Q2912 25 2882 59Q2852 94 2836 142Q2821 190 2821 250Q2821 378 2880 445Q2939 512 3047 512Q3082 512 3116 502Q3150 493 3176 471Q3203 449 3219 412Q3236 376 3236 322Q3236 305 3234 287Q3233 270 3229 250L2917 250Q2917 208 2927 171Q2938 135 2959 108Q2980 81 3012 65Q3044 50 3087 50Q3122 50 3158 60Q3194 70 3212 86ZM3043 468Q2986 468 2956 429Q2926 391 2920 294L3140 294Q3141 303 3141 311Q3142 320 3142 328Q3142 392 3118 430Q3094 468 3043 468ZM3566 0L3521 -12L3326 450Q3297 460 3273 474L3273 500L3482 500L3482 475Q3469 468 3455 461Q3442 455 3425 450L3541 149L3561 87L3563 87L3578 150L3685 450Q3669 454 3655 460Q3642 466 3630 474L3630 500L3800 500L3800 474Q3790 467 3775 461Q3761 455 3743 450L3566 0ZM4222 86L4236 70Q4228 53 4211 38Q4194 23 4172 12Q4150 1 4124 -6Q4098 -12 4071 -12Q4012 -12 3967 6Q3922 25 3892 59Q3862 94 3846 142Q3831 190 3831 250Q3831 378 3890 445Q3949 512 4057 512Q4092 512 4126 502Q4160 493 4186 471Q4213 449 4229 412Q4246 376 4246 322Q4246 305 4244 287Q4243 270 4239 250L3927 250Q3927 208 3937 171Q3948 135 3969 108Q3990 81 4022 65Q4054 50 4097 50Q4132 50 4168 60Q4204 70 4222 86ZM4053 468Q3996 468 3966 429Q3936 391 3930 294L4150 294Q4151 303 4151 311Q4152 320 4152 328Q4152 392 4128 430Q4104 468 4053 468ZM4556 25L4556 0L4334 0L4334 25Q4367 41 4400 49L4400 682L4324 690L4324 716Q4350 728 4389 737Q4428 746 4465 752L4490 752L4490 49Q4523 41 4556 25ZM4635 250Q4635 313 4651 361Q4668 410 4699 443Q4730 477 4773 494Q4817 512 4870 512Q4932 512 4977 493Q5022 474 5050 439Q5079 405 5092 357Q5106 309 5106 250Q5106 124 5042 56Q4978 -12 4870 -12Q4810 -12 4766 6Q4722 25 4693 59Q4664 94 4649 142Q4635 191 4635 250ZM4731 250Q4731 205 4739 165Q4748 125 4766 95Q4785 66 4815 49Q4845 32 4887 32Q4941 32 4975 85Q5010 138 5010 250Q5010 296 5001 335Q4993 375 4975 404Q4957 434 4929 451Q4901 468 4862 468Q4803 468 4767 415Q4731 362 4731 250ZM5400 -175L5400 -200L5178 -200L5178 -175Q5212 -159 5244 -151L5244 442L5178 450L5178 476Q5210 490 5243 498Q5277 507 5309 512L5334 512L5334 400L5335 400Q5355 451 5391 481Q5427 512 5485 512Q5574 512 5623 453Q5672 394 5672 261Q5672 198 5655 147Q5639 96 5608 61Q5578 26 5534 7Q5491 -12 5438 -12Q5401 -12 5380 -8Q5359 -3 5334 8L5334 -151Q5350 -153 5366 -159Q5382 -164 5400 -175ZM5453 450Q5404 450 5375 419Q5346 388 5334 334L5334 54Q5352 43 5374 37Q5397 32 5433 32Q5466 32 5492 49Q5519 66 5537 97Q5556 128 5566 169Q5576 211 5576 261Q5576 302 5569 336Q5563 371 5548 396Q5534 422 5510 436Q5487 450 5453 450ZM6145 86L6159 70Q6151 53 6134 38Q6117 23 6095 12Q6073 1 6047 -6Q6021 -12 5994 -12Q5935 -12 5890 6Q5845 25 5815 59Q5785 94 5769 142Q5754 190 5754 250Q5754 378 5813 445Q5872 512 5980 512Q6015 512 6049 502Q6083 493 6109 471Q6136 449 6152 412Q6169 376 6169 322Q6169 305 6167 287Q6166 270 6162 250L5850 250Q5850 208 5860 171Q5871 135 5892 108Q5913 81 5945 65Q5977 50 6020 50Q6055 50 6091 60Q6127 70 6145 86ZM5976 468Q5919 468 5889 429Q5859 391 5853 294L6073 294Q6074 303 6074 311Q6075 320 6075 328Q6075 392 6051 430Q6027 468 5976 468ZM6593 425L6460 425Q6449 419 6432 400Q6416 382 6403 346L6403 49Q6423 47 6443 41Q6463 36 6483 25L6483 0L6247 0L6247 25Q6265 35 6281 40Q6297 45 6313 49L6313 442L6247 450L6247 476Q6279 490 6313 498Q6347 507 6378 512L6403 512L6403 406L6407 406Q6416 426 6432 446Q6449 466 6470 482Q6492 498 6517 506Q6543 515 6570 512Q6577 499 6582 483Q6588 468 6593 451L6593 425Z" style="" fill="#000000"></path></g></g></g></svg>